<mxfile host="app.diagrams.net" agent="Mozilla/5.0 (Windows NT 10.0; Win64; x64) AppleWebKit/537.36 (KHTML, like Gecko) Chrome/138.0.0.0 Safari/537.36" version="28.1.1" pages="6">
  <diagram name="PÃ¡gina-1" id="K2zmLa8b1TfUrX6cofTv">
    <mxGraphModel dx="2073" dy="1833" grid="1" gridSize="10" guides="1" tooltips="1" connect="1" arrows="1" fold="1" page="1" pageScale="1" pageWidth="827" pageHeight="1169" math="0" shadow="0">
      <root>
        <mxCell id="0" />
        <mxCell id="1" parent="0" />
        <mxCell id="IhZcXb-aFPSrtWPQYi8L-1" value="" style="rounded=0;whiteSpace=wrap;html=1;" vertex="1" parent="1">
          <mxGeometry x="69" y="30" width="690" height="480" as="geometry" />
        </mxCell>
        <mxCell id="IhZcXb-aFPSrtWPQYi8L-2" value="administrador" style="shape=umlActor;verticalLabelPosition=bottom;verticalAlign=top;html=1;outlineConnect=0;" vertex="1" parent="1">
          <mxGeometry x="-10" y="220" width="30" height="60" as="geometry" />
        </mxCell>
        <mxCell id="IhZcXb-aFPSrtWPQYi8L-3" value="empleado" style="shape=umlActor;verticalLabelPosition=bottom;verticalAlign=top;html=1;outlineConnect=0;" vertex="1" parent="1">
          <mxGeometry x="810" y="210" width="30" height="60" as="geometry" />
        </mxCell>
        <mxCell id="IhZcXb-aFPSrtWPQYi8L-4" value="actualizar stock" style="ellipse;whiteSpace=wrap;html=1;" vertex="1" parent="1">
          <mxGeometry x="379" y="50" width="70" height="60" as="geometry" />
        </mxCell>
        <mxCell id="IhZcXb-aFPSrtWPQYi8L-5" value="historial" style="ellipse;whiteSpace=wrap;html=1;" vertex="1" parent="1">
          <mxGeometry x="670" y="60" width="60" height="40" as="geometry" />
        </mxCell>
        <mxCell id="IhZcXb-aFPSrtWPQYi8L-7" value="alerta de stock bajo" style="ellipse;whiteSpace=wrap;html=1;" vertex="1" parent="1">
          <mxGeometry x="630" y="430" width="71" height="50" as="geometry" />
        </mxCell>
        <mxCell id="IhZcXb-aFPSrtWPQYi8L-8" value="producto nuevo" style="ellipse;whiteSpace=wrap;html=1;" vertex="1" parent="1">
          <mxGeometry x="370" y="225" width="70" height="50" as="geometry" />
        </mxCell>
        <mxCell id="IhZcXb-aFPSrtWPQYi8L-11" value="numero de stock" style="ellipse;whiteSpace=wrap;html=1;" vertex="1" parent="1">
          <mxGeometry x="370" y="390" width="70" height="50" as="geometry" />
        </mxCell>
        <mxCell id="IhZcXb-aFPSrtWPQYi8L-12" value="inventario" style="text;html=1;align=center;verticalAlign=middle;resizable=0;points=[];autosize=1;strokeColor=none;fillColor=none;" vertex="1" parent="1">
          <mxGeometry x="360" y="-50" width="80" height="30" as="geometry" />
        </mxCell>
        <mxCell id="IhZcXb-aFPSrtWPQYi8L-14" value="" style="endArrow=none;html=1;rounded=0;entryX=0.014;entryY=0.617;entryDx=0;entryDy=0;entryPerimeter=0;" edge="1" parent="1" source="IhZcXb-aFPSrtWPQYi8L-28" target="IhZcXb-aFPSrtWPQYi8L-4">
          <mxGeometry width="50" height="50" relative="1" as="geometry">
            <mxPoint x="360" y="260" as="sourcePoint" />
            <mxPoint x="410" y="210" as="targetPoint" />
          </mxGeometry>
        </mxCell>
        <mxCell id="IhZcXb-aFPSrtWPQYi8L-15" value="" style="endArrow=none;html=1;rounded=0;exitX=1;exitY=0.5;exitDx=0;exitDy=0;" edge="1" parent="1" source="IhZcXb-aFPSrtWPQYi8L-29" target="IhZcXb-aFPSrtWPQYi8L-3">
          <mxGeometry width="50" height="50" relative="1" as="geometry">
            <mxPoint x="360" y="247" as="sourcePoint" />
            <mxPoint x="706" y="110" as="targetPoint" />
          </mxGeometry>
        </mxCell>
        <mxCell id="IhZcXb-aFPSrtWPQYi8L-16" value="" style="endArrow=none;html=1;rounded=0;exitX=1;exitY=0.5;exitDx=0;exitDy=0;" edge="1" parent="1" source="IhZcXb-aFPSrtWPQYi8L-30" target="IhZcXb-aFPSrtWPQYi8L-3">
          <mxGeometry width="50" height="50" relative="1" as="geometry">
            <mxPoint x="435" y="190" as="sourcePoint" />
            <mxPoint x="810" y="325" as="targetPoint" />
          </mxGeometry>
        </mxCell>
        <mxCell id="IhZcXb-aFPSrtWPQYi8L-17" value="" style="endArrow=none;html=1;rounded=0;exitX=1;exitY=0.5;exitDx=0;exitDy=0;" edge="1" parent="1" source="IhZcXb-aFPSrtWPQYi8L-27" target="IhZcXb-aFPSrtWPQYi8L-3">
          <mxGeometry width="50" height="50" relative="1" as="geometry">
            <mxPoint x="580" y="300" as="sourcePoint" />
            <mxPoint x="955" y="353" as="targetPoint" />
          </mxGeometry>
        </mxCell>
        <mxCell id="IhZcXb-aFPSrtWPQYi8L-18" value="" style="endArrow=none;html=1;rounded=0;entryX=0;entryY=0.5;entryDx=0;entryDy=0;" edge="1" parent="1" source="IhZcXb-aFPSrtWPQYi8L-26" target="IhZcXb-aFPSrtWPQYi8L-11">
          <mxGeometry width="50" height="50" relative="1" as="geometry">
            <mxPoint x="20" y="250" as="sourcePoint" />
            <mxPoint x="616" y="140" as="targetPoint" />
          </mxGeometry>
        </mxCell>
        <mxCell id="IhZcXb-aFPSrtWPQYi8L-19" value="" style="endArrow=none;html=1;rounded=0;entryX=0.071;entryY=0.64;entryDx=0;entryDy=0;entryPerimeter=0;" edge="1" parent="1" source="IhZcXb-aFPSrtWPQYi8L-23" target="IhZcXb-aFPSrtWPQYi8L-8">
          <mxGeometry width="50" height="50" relative="1" as="geometry">
            <mxPoint x="24" y="297" as="sourcePoint" />
            <mxPoint x="370" y="160" as="targetPoint" />
          </mxGeometry>
        </mxCell>
        <mxCell id="IhZcXb-aFPSrtWPQYi8L-20" value="" style="endArrow=none;html=1;rounded=0;exitX=1;exitY=0.5;exitDx=0;exitDy=0;" edge="1" parent="1" source="IhZcXb-aFPSrtWPQYi8L-25" target="IhZcXb-aFPSrtWPQYi8L-5">
          <mxGeometry width="50" height="50" relative="1" as="geometry">
            <mxPoint x="160" y="336" as="sourcePoint" />
            <mxPoint x="520" y="180" as="targetPoint" />
          </mxGeometry>
        </mxCell>
        <mxCell id="IhZcXb-aFPSrtWPQYi8L-22" value="" style="endArrow=none;html=1;rounded=0;entryX=0;entryY=0.5;entryDx=0;entryDy=0;exitX=1;exitY=0.5;exitDx=0;exitDy=0;" edge="1" parent="1" source="IhZcXb-aFPSrtWPQYi8L-24" target="IhZcXb-aFPSrtWPQYi8L-7">
          <mxGeometry width="50" height="50" relative="1" as="geometry">
            <mxPoint x="340" y="360" as="sourcePoint" />
            <mxPoint x="390" y="310" as="targetPoint" />
          </mxGeometry>
        </mxCell>
        <mxCell id="IhZcXb-aFPSrtWPQYi8L-31" value="" style="endArrow=none;html=1;rounded=0;exitX=1;exitY=0.5;exitDx=0;exitDy=0;" edge="1" parent="1" source="IhZcXb-aFPSrtWPQYi8L-11" target="IhZcXb-aFPSrtWPQYi8L-27">
          <mxGeometry width="50" height="50" relative="1" as="geometry">
            <mxPoint x="440" y="415" as="sourcePoint" />
            <mxPoint x="810" y="247" as="targetPoint" />
          </mxGeometry>
        </mxCell>
        <mxCell id="IhZcXb-aFPSrtWPQYi8L-27" value="include" style="text;html=1;align=center;verticalAlign=middle;resizable=0;points=[];autosize=1;strokeColor=none;fillColor=none;" vertex="1" parent="1">
          <mxGeometry x="580" y="320" width="60" height="30" as="geometry" />
        </mxCell>
        <mxCell id="IhZcXb-aFPSrtWPQYi8L-32" value="" style="endArrow=none;html=1;rounded=0;entryX=0;entryY=0.5;entryDx=0;entryDy=0;" edge="1" parent="1" target="IhZcXb-aFPSrtWPQYi8L-26">
          <mxGeometry width="50" height="50" relative="1" as="geometry">
            <mxPoint x="20" y="250" as="sourcePoint" />
            <mxPoint x="370" y="415" as="targetPoint" />
          </mxGeometry>
        </mxCell>
        <mxCell id="IhZcXb-aFPSrtWPQYi8L-26" value="include" style="text;html=1;align=center;verticalAlign=middle;resizable=0;points=[];autosize=1;strokeColor=none;fillColor=none;" vertex="1" parent="1">
          <mxGeometry x="160" y="320" width="60" height="30" as="geometry" />
        </mxCell>
        <mxCell id="IhZcXb-aFPSrtWPQYi8L-33" value="" style="endArrow=none;html=1;rounded=0;entryX=0.071;entryY=0.64;entryDx=0;entryDy=0;entryPerimeter=0;" edge="1" parent="1" source="IhZcXb-aFPSrtWPQYi8L-2" target="IhZcXb-aFPSrtWPQYi8L-23">
          <mxGeometry width="50" height="50" relative="1" as="geometry">
            <mxPoint x="20" y="250" as="sourcePoint" />
            <mxPoint x="375" y="257" as="targetPoint" />
          </mxGeometry>
        </mxCell>
        <mxCell id="IhZcXb-aFPSrtWPQYi8L-23" value="include" style="text;html=1;align=center;verticalAlign=middle;resizable=0;points=[];autosize=1;strokeColor=none;fillColor=none;" vertex="1" parent="1">
          <mxGeometry x="190" y="235" width="60" height="30" as="geometry" />
        </mxCell>
        <mxCell id="IhZcXb-aFPSrtWPQYi8L-34" value="" style="endArrow=none;html=1;rounded=0;exitX=1;exitY=0.5;exitDx=0;exitDy=0;" edge="1" parent="1" source="IhZcXb-aFPSrtWPQYi8L-8" target="IhZcXb-aFPSrtWPQYi8L-30">
          <mxGeometry width="50" height="50" relative="1" as="geometry">
            <mxPoint x="440" y="250" as="sourcePoint" />
            <mxPoint x="810" y="240" as="targetPoint" />
          </mxGeometry>
        </mxCell>
        <mxCell id="IhZcXb-aFPSrtWPQYi8L-30" value="include" style="text;html=1;align=center;verticalAlign=middle;resizable=0;points=[];autosize=1;strokeColor=none;fillColor=none;" vertex="1" parent="1">
          <mxGeometry x="570" y="235" width="60" height="30" as="geometry" />
        </mxCell>
        <mxCell id="IhZcXb-aFPSrtWPQYi8L-35" value="" style="endArrow=none;html=1;rounded=0;exitX=1;exitY=0.5;exitDx=0;exitDy=0;" edge="1" parent="1" source="IhZcXb-aFPSrtWPQYi8L-4" target="IhZcXb-aFPSrtWPQYi8L-29">
          <mxGeometry width="50" height="50" relative="1" as="geometry">
            <mxPoint x="449" y="80" as="sourcePoint" />
            <mxPoint x="810" y="234" as="targetPoint" />
          </mxGeometry>
        </mxCell>
        <mxCell id="IhZcXb-aFPSrtWPQYi8L-29" value="include" style="text;html=1;align=center;verticalAlign=middle;resizable=0;points=[];autosize=1;strokeColor=none;fillColor=none;" vertex="1" parent="1">
          <mxGeometry x="590" y="140" width="60" height="30" as="geometry" />
        </mxCell>
        <mxCell id="IhZcXb-aFPSrtWPQYi8L-36" value="" style="endArrow=none;html=1;rounded=0;entryX=0.014;entryY=0.617;entryDx=0;entryDy=0;entryPerimeter=0;" edge="1" parent="1" source="IhZcXb-aFPSrtWPQYi8L-2" target="IhZcXb-aFPSrtWPQYi8L-28">
          <mxGeometry width="50" height="50" relative="1" as="geometry">
            <mxPoint x="20" y="243" as="sourcePoint" />
            <mxPoint x="380" y="87" as="targetPoint" />
          </mxGeometry>
        </mxCell>
        <mxCell id="IhZcXb-aFPSrtWPQYi8L-28" value="include" style="text;html=1;align=center;verticalAlign=middle;resizable=0;points=[];autosize=1;strokeColor=none;fillColor=none;" vertex="1" parent="1">
          <mxGeometry x="200" y="130" width="60" height="30" as="geometry" />
        </mxCell>
        <mxCell id="IhZcXb-aFPSrtWPQYi8L-37" value="" style="endArrow=none;html=1;rounded=0;exitX=1;exitY=0.5;exitDx=0;exitDy=0;" edge="1" parent="1" source="IhZcXb-aFPSrtWPQYi8L-4" target="IhZcXb-aFPSrtWPQYi8L-25">
          <mxGeometry width="50" height="50" relative="1" as="geometry">
            <mxPoint x="449" y="80" as="sourcePoint" />
            <mxPoint x="590" y="80" as="targetPoint" />
          </mxGeometry>
        </mxCell>
        <mxCell id="IhZcXb-aFPSrtWPQYi8L-25" value="exc&lt;span style=&quot;color: rgba(0, 0, 0, 0); font-family: monospace; font-size: 0px; text-align: start;&quot;&gt;%3CmxGraphModel%3E%3Croot%3E%3CmxCell%20id%3D%220%22%2F%3E%3CmxCell%20id%3D%221%22%20parent%3D%220%22%2F%3E%3CmxCell%20id%3D%222%22%20value%3D%22%22%20style%3D%22endArrow%3Dnone%3Bhtml%3D1%3Brounded%3D0%3BentryX%3D0.014%3BentryY%3D0.617%3BentryDx%3D0%3BentryDy%3D0%3BentryPerimeter%3D0%3B%22%20edge%3D%221%22%20parent%3D%221%22%3E%3CmxGeometry%20width%3D%2250%22%20height%3D%2250%22%20relative%3D%221%22%20as%3D%22geometry%22%3E%3CmxPoint%20x%3D%2220%22%20y%3D%22243%22%20as%3D%22sourcePoint%22%2F%3E%3CmxPoint%20x%3D%22380%22%20y%3D%2287%22%20as%3D%22targetPoint%22%2F%3E%3C%2FmxGeometry%3E%3C%2FmxCell%3E%3C%2Froot%3E%3C%2FmxGraphModel%3E&lt;/span&gt;lude" style="text;html=1;align=center;verticalAlign=middle;resizable=0;points=[];autosize=1;strokeColor=none;fillColor=none;" vertex="1" parent="1">
          <mxGeometry x="540" y="65" width="60" height="30" as="geometry" />
        </mxCell>
        <mxCell id="IhZcXb-aFPSrtWPQYi8L-38" value="" style="endArrow=none;html=1;rounded=0;entryX=0;entryY=0.5;entryDx=0;entryDy=0;exitX=1;exitY=0.5;exitDx=0;exitDy=0;" edge="1" parent="1" source="IhZcXb-aFPSrtWPQYi8L-11" target="IhZcXb-aFPSrtWPQYi8L-24">
          <mxGeometry width="50" height="50" relative="1" as="geometry">
            <mxPoint x="440" y="415" as="sourcePoint" />
            <mxPoint x="550" y="435" as="targetPoint" />
          </mxGeometry>
        </mxCell>
        <mxCell id="IhZcXb-aFPSrtWPQYi8L-24" value="exc&lt;span style=&quot;color: rgba(0, 0, 0, 0); font-family: monospace; font-size: 0px; text-align: start;&quot;&gt;%3CmxGraphModel%3E%3Croot%3E%3CmxCell%20id%3D%220%22%2F%3E%3CmxCell%20id%3D%221%22%20parent%3D%220%22%2F%3E%3CmxCell%20id%3D%222%22%20value%3D%22%22%20style%3D%22endArrow%3Dnone%3Bhtml%3D1%3Brounded%3D0%3BentryX%3D0.014%3BentryY%3D0.617%3BentryDx%3D0%3BentryDy%3D0%3BentryPerimeter%3D0%3B%22%20edge%3D%221%22%20parent%3D%221%22%3E%3CmxGeometry%20width%3D%2250%22%20height%3D%2250%22%20relative%3D%221%22%20as%3D%22geometry%22%3E%3CmxPoint%20x%3D%2220%22%20y%3D%22243%22%20as%3D%22sourcePoint%22%2F%3E%3CmxPoint%20x%3D%22380%22%20y%3D%2287%22%20as%3D%22targetPoint%22%2F%3E%3C%2FmxGeometry%3E%3C%2FmxCell%3E%3C%2Froot%3E%3C%2FmxGraphModel%3E&lt;/span&gt;lude" style="text;html=1;align=center;verticalAlign=middle;resizable=0;points=[];autosize=1;strokeColor=none;fillColor=none;" vertex="1" parent="1">
          <mxGeometry x="490" y="430" width="60" height="30" as="geometry" />
        </mxCell>
      </root>
    </mxGraphModel>
  </diagram>
  <diagram id="rwavxIDP2V7Wqlw7T7H5" name="PÃ¡gina-2">
    <mxGraphModel dx="1585" dy="845" grid="1" gridSize="10" guides="1" tooltips="1" connect="1" arrows="1" fold="1" page="1" pageScale="1" pageWidth="827" pageHeight="1169" math="0" shadow="0">
      <root>
        <mxCell id="0" />
        <mxCell id="1" parent="0" />
        <mxCell id="ZokC7jPuqegJXK2MM_wK-1" value="" style="rounded=0;whiteSpace=wrap;html=1;" vertex="1" parent="1">
          <mxGeometry x="570" y="380" width="690" height="480" as="geometry" />
        </mxCell>
        <mxCell id="ZokC7jPuqegJXK2MM_wK-2" value="cliente" style="shape=umlActor;verticalLabelPosition=bottom;verticalAlign=top;html=1;outlineConnect=0;" vertex="1" parent="1">
          <mxGeometry x="1320" y="610" width="30" height="60" as="geometry" />
        </mxCell>
        <mxCell id="ZokC7jPuqegJXK2MM_wK-3" value="pago" style="shape=umlActor;verticalLabelPosition=bottom;verticalAlign=top;html=1;outlineConnect=0;" vertex="1" parent="1">
          <mxGeometry x="430" y="460" width="30" height="60" as="geometry" />
        </mxCell>
        <mxCell id="ZokC7jPuqegJXK2MM_wK-9" value="banco&lt;div&gt;&lt;br&gt;&lt;/div&gt;" style="text;html=1;align=center;verticalAlign=middle;resizable=0;points=[];autosize=1;strokeColor=none;fillColor=none;" vertex="1" parent="1">
          <mxGeometry x="840" y="235" width="60" height="40" as="geometry" />
        </mxCell>
        <mxCell id="ZokC7jPuqegJXK2MM_wK-34" value="sistema banco&lt;div&gt;&lt;br&gt;&lt;/div&gt;" style="shape=umlActor;verticalLabelPosition=bottom;verticalAlign=top;html=1;outlineConnect=0;" vertex="1" parent="1">
          <mxGeometry x="400" y="720" width="30" height="60" as="geometry" />
        </mxCell>
        <mxCell id="ZokC7jPuqegJXK2MM_wK-37" value="inicio pago" style="ellipse;whiteSpace=wrap;html=1;" vertex="1" parent="1">
          <mxGeometry x="1160" y="480" width="70" height="50" as="geometry" />
        </mxCell>
        <mxCell id="ZokC7jPuqegJXK2MM_wK-38" value="comprovante" style="ellipse;whiteSpace=wrap;html=1;" vertex="1" parent="1">
          <mxGeometry x="1100" y="710" width="70" height="50" as="geometry" />
        </mxCell>
        <mxCell id="ZokC7jPuqegJXK2MM_wK-39" value="" style="ellipse;whiteSpace=wrap;html=1;" vertex="1" parent="1">
          <mxGeometry x="670" y="780" width="70" height="50" as="geometry" />
        </mxCell>
        <mxCell id="ZokC7jPuqegJXK2MM_wK-40" value="confirmar transaccion" style="ellipse;whiteSpace=wrap;html=1;" vertex="1" parent="1">
          <mxGeometry x="1025" y="600" width="70" height="50" as="geometry" />
        </mxCell>
        <mxCell id="ZokC7jPuqegJXK2MM_wK-41" value="tarjeta" style="ellipse;whiteSpace=wrap;html=1;" vertex="1" parent="1">
          <mxGeometry x="750" y="550" width="70" height="50" as="geometry" />
        </mxCell>
        <mxCell id="ZokC7jPuqegJXK2MM_wK-42" value="billetera onine" style="ellipse;whiteSpace=wrap;html=1;" vertex="1" parent="1">
          <mxGeometry x="740" y="420" width="70" height="50" as="geometry" />
        </mxCell>
        <mxCell id="ZokC7jPuqegJXK2MM_wK-43" value="transferencia" style="ellipse;whiteSpace=wrap;html=1;" vertex="1" parent="1">
          <mxGeometry x="790" y="690" width="70" height="50" as="geometry" />
        </mxCell>
        <mxCell id="ZokC7jPuqegJXK2MM_wK-44" value="" style="endArrow=none;html=1;rounded=0;exitX=1;exitY=0.5;exitDx=0;exitDy=0;" edge="1" parent="1" source="ZokC7jPuqegJXK2MM_wK-50" target="ZokC7jPuqegJXK2MM_wK-2">
          <mxGeometry width="50" height="50" relative="1" as="geometry">
            <mxPoint x="1020" y="740" as="sourcePoint" />
            <mxPoint x="1070" y="690" as="targetPoint" />
          </mxGeometry>
        </mxCell>
        <mxCell id="ZokC7jPuqegJXK2MM_wK-45" value="" style="endArrow=none;html=1;rounded=0;exitX=1;exitY=0.5;exitDx=0;exitDy=0;" edge="1" parent="1" source="ZokC7jPuqegJXK2MM_wK-48" target="ZokC7jPuqegJXK2MM_wK-2">
          <mxGeometry width="50" height="50" relative="1" as="geometry">
            <mxPoint x="1130" y="779" as="sourcePoint" />
            <mxPoint x="1290" y="720" as="targetPoint" />
          </mxGeometry>
        </mxCell>
        <mxCell id="ZokC7jPuqegJXK2MM_wK-49" value="" style="endArrow=none;html=1;rounded=0;exitX=1;exitY=0.5;exitDx=0;exitDy=0;" edge="1" parent="1" source="ZokC7jPuqegJXK2MM_wK-37" target="ZokC7jPuqegJXK2MM_wK-48">
          <mxGeometry width="50" height="50" relative="1" as="geometry">
            <mxPoint x="1170" y="625" as="sourcePoint" />
            <mxPoint x="1320" y="639" as="targetPoint" />
          </mxGeometry>
        </mxCell>
        <mxCell id="ZokC7jPuqegJXK2MM_wK-48" value="include" style="text;html=1;align=center;verticalAlign=middle;resizable=0;points=[];autosize=1;strokeColor=none;fillColor=none;" vertex="1" parent="1">
          <mxGeometry x="1181" y="620" width="60" height="30" as="geometry" />
        </mxCell>
        <mxCell id="ZokC7jPuqegJXK2MM_wK-51" value="" style="endArrow=none;html=1;rounded=0;exitX=1;exitY=0.5;exitDx=0;exitDy=0;" edge="1" parent="1" source="ZokC7jPuqegJXK2MM_wK-38" target="ZokC7jPuqegJXK2MM_wK-50">
          <mxGeometry width="50" height="50" relative="1" as="geometry">
            <mxPoint x="1160" y="705" as="sourcePoint" />
            <mxPoint x="1320" y="646" as="targetPoint" />
          </mxGeometry>
        </mxCell>
        <mxCell id="ZokC7jPuqegJXK2MM_wK-50" value="include" style="text;html=1;align=center;verticalAlign=middle;resizable=0;points=[];autosize=1;strokeColor=none;fillColor=none;" vertex="1" parent="1">
          <mxGeometry x="1200" y="680" width="60" height="30" as="geometry" />
        </mxCell>
        <mxCell id="ZokC7jPuqegJXK2MM_wK-52" value="metodo pago" style="ellipse;whiteSpace=wrap;html=1;" vertex="1" parent="1">
          <mxGeometry x="970" y="480" width="70" height="50" as="geometry" />
        </mxCell>
        <mxCell id="ZokC7jPuqegJXK2MM_wK-53" value="" style="endArrow=none;html=1;rounded=0;exitX=0.983;exitY=0.608;exitDx=0;exitDy=0;exitPerimeter=0;entryX=0;entryY=0.5;entryDx=0;entryDy=0;" edge="1" parent="1" source="cnJOetgvGO6HsMZTgjHF-1" target="ZokC7jPuqegJXK2MM_wK-52">
          <mxGeometry width="50" height="50" relative="1" as="geometry">
            <mxPoint x="780" y="660" as="sourcePoint" />
            <mxPoint x="830" y="610" as="targetPoint" />
          </mxGeometry>
        </mxCell>
        <mxCell id="ZokC7jPuqegJXK2MM_wK-54" value="" style="endArrow=none;html=1;rounded=0;exitX=1;exitY=0.5;exitDx=0;exitDy=0;entryX=0;entryY=0.5;entryDx=0;entryDy=0;" edge="1" parent="1" source="cnJOetgvGO6HsMZTgjHF-4" target="ZokC7jPuqegJXK2MM_wK-52">
          <mxGeometry width="50" height="50" relative="1" as="geometry">
            <mxPoint x="800" y="680" as="sourcePoint" />
            <mxPoint x="829" y="595" as="targetPoint" />
          </mxGeometry>
        </mxCell>
        <mxCell id="ZokC7jPuqegJXK2MM_wK-55" value="" style="endArrow=none;html=1;rounded=0;exitX=1;exitY=0.5;exitDx=0;exitDy=0;entryX=0;entryY=0.5;entryDx=0;entryDy=0;" edge="1" parent="1" source="cnJOetgvGO6HsMZTgjHF-6" target="ZokC7jPuqegJXK2MM_wK-52">
          <mxGeometry width="50" height="50" relative="1" as="geometry">
            <mxPoint x="850" y="680" as="sourcePoint" />
            <mxPoint x="959" y="786" as="targetPoint" />
          </mxGeometry>
        </mxCell>
        <mxCell id="ZokC7jPuqegJXK2MM_wK-56" value="" style="endArrow=none;html=1;rounded=0;exitX=1;exitY=0.5;exitDx=0;exitDy=0;entryX=0;entryY=0.5;entryDx=0;entryDy=0;" edge="1" parent="1" source="cnJOetgvGO6HsMZTgjHF-11" target="ZokC7jPuqegJXK2MM_wK-37">
          <mxGeometry width="50" height="50" relative="1" as="geometry">
            <mxPoint x="820" y="660" as="sourcePoint" />
            <mxPoint x="1002" y="675" as="targetPoint" />
          </mxGeometry>
        </mxCell>
        <mxCell id="cnJOetgvGO6HsMZTgjHF-3" value="" style="endArrow=none;html=1;rounded=0;exitX=0.983;exitY=0.608;exitDx=0;exitDy=0;exitPerimeter=0;entryX=0;entryY=0.5;entryDx=0;entryDy=0;" edge="1" parent="1" source="ZokC7jPuqegJXK2MM_wK-42" target="cnJOetgvGO6HsMZTgjHF-1">
          <mxGeometry width="50" height="50" relative="1" as="geometry">
            <mxPoint x="679" y="570" as="sourcePoint" />
            <mxPoint x="861" y="585" as="targetPoint" />
          </mxGeometry>
        </mxCell>
        <mxCell id="cnJOetgvGO6HsMZTgjHF-1" value="extend" style="text;html=1;align=center;verticalAlign=middle;resizable=0;points=[];autosize=1;strokeColor=none;fillColor=none;" vertex="1" parent="1">
          <mxGeometry x="870" y="440" width="60" height="30" as="geometry" />
        </mxCell>
        <mxCell id="cnJOetgvGO6HsMZTgjHF-5" value="" style="endArrow=none;html=1;rounded=0;exitX=1;exitY=0.5;exitDx=0;exitDy=0;entryX=0;entryY=0.5;entryDx=0;entryDy=0;" edge="1" parent="1" source="ZokC7jPuqegJXK2MM_wK-43" target="cnJOetgvGO6HsMZTgjHF-4">
          <mxGeometry width="50" height="50" relative="1" as="geometry">
            <mxPoint x="720" y="495" as="sourcePoint" />
            <mxPoint x="861" y="585" as="targetPoint" />
          </mxGeometry>
        </mxCell>
        <mxCell id="cnJOetgvGO6HsMZTgjHF-4" value="extend" style="text;html=1;align=center;verticalAlign=middle;resizable=0;points=[];autosize=1;strokeColor=none;fillColor=none;" vertex="1" parent="1">
          <mxGeometry x="880" y="625" width="60" height="30" as="geometry" />
        </mxCell>
        <mxCell id="cnJOetgvGO6HsMZTgjHF-7" value="" style="endArrow=none;html=1;rounded=0;exitX=1;exitY=0.5;exitDx=0;exitDy=0;entryX=0;entryY=0.5;entryDx=0;entryDy=0;" edge="1" parent="1" source="ZokC7jPuqegJXK2MM_wK-41" target="cnJOetgvGO6HsMZTgjHF-6">
          <mxGeometry width="50" height="50" relative="1" as="geometry">
            <mxPoint x="720" y="435" as="sourcePoint" />
            <mxPoint x="861" y="585" as="targetPoint" />
          </mxGeometry>
        </mxCell>
        <mxCell id="cnJOetgvGO6HsMZTgjHF-6" value="extend" style="text;html=1;align=center;verticalAlign=middle;resizable=0;points=[];autosize=1;strokeColor=none;fillColor=none;" vertex="1" parent="1">
          <mxGeometry x="860" y="520" width="60" height="30" as="geometry" />
        </mxCell>
        <mxCell id="cnJOetgvGO6HsMZTgjHF-8" value="" style="endArrow=none;html=1;rounded=0;entryX=0;entryY=0.5;entryDx=0;entryDy=0;" edge="1" parent="1" source="cnJOetgvGO6HsMZTgjHF-21" target="ZokC7jPuqegJXK2MM_wK-41">
          <mxGeometry width="50" height="50" relative="1" as="geometry">
            <mxPoint x="910" y="650" as="sourcePoint" />
            <mxPoint x="960" y="600" as="targetPoint" />
          </mxGeometry>
        </mxCell>
        <mxCell id="cnJOetgvGO6HsMZTgjHF-9" value="" style="endArrow=none;html=1;rounded=0;" edge="1" parent="1" source="cnJOetgvGO6HsMZTgjHF-22" target="ZokC7jPuqegJXK2MM_wK-43">
          <mxGeometry width="50" height="50" relative="1" as="geometry">
            <mxPoint x="750" y="741" as="sourcePoint" />
            <mxPoint x="940" y="690" as="targetPoint" />
          </mxGeometry>
        </mxCell>
        <mxCell id="cnJOetgvGO6HsMZTgjHF-10" value="" style="endArrow=none;html=1;rounded=0;entryX=0;entryY=0.5;entryDx=0;entryDy=0;" edge="1" parent="1" source="cnJOetgvGO6HsMZTgjHF-19" target="ZokC7jPuqegJXK2MM_wK-42">
          <mxGeometry width="50" height="50" relative="1" as="geometry">
            <mxPoint x="650" y="660" as="sourcePoint" />
            <mxPoint x="860" y="664" as="targetPoint" />
          </mxGeometry>
        </mxCell>
        <mxCell id="cnJOetgvGO6HsMZTgjHF-12" value="" style="endArrow=none;html=1;rounded=0;exitX=1;exitY=0.5;exitDx=0;exitDy=0;entryX=0;entryY=0.5;entryDx=0;entryDy=0;" edge="1" parent="1" source="ZokC7jPuqegJXK2MM_wK-52" target="cnJOetgvGO6HsMZTgjHF-11">
          <mxGeometry width="50" height="50" relative="1" as="geometry">
            <mxPoint x="1000" y="505" as="sourcePoint" />
            <mxPoint x="1110" y="505" as="targetPoint" />
          </mxGeometry>
        </mxCell>
        <mxCell id="cnJOetgvGO6HsMZTgjHF-11" value="include" style="text;html=1;align=center;verticalAlign=middle;resizable=0;points=[];autosize=1;strokeColor=none;fillColor=none;" vertex="1" parent="1">
          <mxGeometry x="1050" y="490" width="60" height="30" as="geometry" />
        </mxCell>
        <mxCell id="cnJOetgvGO6HsMZTgjHF-13" value="" style="endArrow=none;html=1;rounded=0;entryX=0.5;entryY=1;entryDx=0;entryDy=0;exitX=0.5;exitY=0;exitDx=0;exitDy=0;" edge="1" parent="1" source="ZokC7jPuqegJXK2MM_wK-46" target="ZokC7jPuqegJXK2MM_wK-52">
          <mxGeometry width="50" height="50" relative="1" as="geometry">
            <mxPoint x="910" y="700" as="sourcePoint" />
            <mxPoint x="960" y="650" as="targetPoint" />
          </mxGeometry>
        </mxCell>
        <mxCell id="cnJOetgvGO6HsMZTgjHF-14" value="" style="endArrow=none;html=1;rounded=0;entryX=0.5;entryY=1;entryDx=0;entryDy=0;exitX=0.119;exitY=0.353;exitDx=0;exitDy=0;exitPerimeter=0;" edge="1" parent="1" source="cnJOetgvGO6HsMZTgjHF-15" target="ZokC7jPuqegJXK2MM_wK-40">
          <mxGeometry width="50" height="50" relative="1" as="geometry">
            <mxPoint x="910" y="700" as="sourcePoint" />
            <mxPoint x="960" y="650" as="targetPoint" />
          </mxGeometry>
        </mxCell>
        <mxCell id="cnJOetgvGO6HsMZTgjHF-16" value="" style="endArrow=none;html=1;rounded=0;entryX=0.5;entryY=1;entryDx=0;entryDy=0;exitX=0.119;exitY=0.353;exitDx=0;exitDy=0;exitPerimeter=0;" edge="1" parent="1" source="ZokC7jPuqegJXK2MM_wK-38" target="cnJOetgvGO6HsMZTgjHF-15">
          <mxGeometry width="50" height="50" relative="1" as="geometry">
            <mxPoint x="1078" y="723" as="sourcePoint" />
            <mxPoint x="965" y="630" as="targetPoint" />
          </mxGeometry>
        </mxCell>
        <mxCell id="cnJOetgvGO6HsMZTgjHF-15" value="include" style="text;html=1;align=center;verticalAlign=middle;resizable=0;points=[];autosize=1;strokeColor=none;fillColor=none;" vertex="1" parent="1">
          <mxGeometry x="1080" y="660" width="60" height="30" as="geometry" />
        </mxCell>
        <mxCell id="cnJOetgvGO6HsMZTgjHF-17" value="" style="endArrow=none;html=1;rounded=0;entryX=0;entryY=0.5;entryDx=0;entryDy=0;" edge="1" parent="1" source="cnJOetgvGO6HsMZTgjHF-24" target="ZokC7jPuqegJXK2MM_wK-43">
          <mxGeometry width="50" height="50" relative="1" as="geometry">
            <mxPoint x="910" y="700" as="sourcePoint" />
            <mxPoint x="960" y="650" as="targetPoint" />
          </mxGeometry>
        </mxCell>
        <mxCell id="cnJOetgvGO6HsMZTgjHF-18" value="" style="endArrow=none;html=1;rounded=0;entryX=0;entryY=0.5;entryDx=0;entryDy=0;exitX=1;exitY=0.3333333333333333;exitDx=0;exitDy=0;exitPerimeter=0;" edge="1" parent="1" source="cnJOetgvGO6HsMZTgjHF-26" target="ZokC7jPuqegJXK2MM_wK-41">
          <mxGeometry width="50" height="50" relative="1" as="geometry">
            <mxPoint x="450" y="730" as="sourcePoint" />
            <mxPoint x="750" y="770" as="targetPoint" />
          </mxGeometry>
        </mxCell>
        <mxCell id="cnJOetgvGO6HsMZTgjHF-20" value="" style="endArrow=none;html=1;rounded=0;entryX=0;entryY=0.5;entryDx=0;entryDy=0;" edge="1" parent="1" source="ZokC7jPuqegJXK2MM_wK-3" target="cnJOetgvGO6HsMZTgjHF-19">
          <mxGeometry width="50" height="50" relative="1" as="geometry">
            <mxPoint x="460" y="485" as="sourcePoint" />
            <mxPoint x="700" y="405" as="targetPoint" />
          </mxGeometry>
        </mxCell>
        <mxCell id="cnJOetgvGO6HsMZTgjHF-19" value="include" style="text;html=1;align=center;verticalAlign=middle;resizable=0;points=[];autosize=1;strokeColor=none;fillColor=none;" vertex="1" parent="1">
          <mxGeometry x="610" y="430" width="60" height="30" as="geometry" />
        </mxCell>
        <mxCell id="cnJOetgvGO6HsMZTgjHF-23" value="" style="endArrow=none;html=1;rounded=0;" edge="1" parent="1" source="ZokC7jPuqegJXK2MM_wK-3" target="cnJOetgvGO6HsMZTgjHF-22">
          <mxGeometry width="50" height="50" relative="1" as="geometry">
            <mxPoint x="460" y="502" as="sourcePoint" />
            <mxPoint x="722" y="711" as="targetPoint" />
          </mxGeometry>
        </mxCell>
        <mxCell id="cnJOetgvGO6HsMZTgjHF-22" value="include" style="text;html=1;align=center;verticalAlign=middle;resizable=0;points=[];autosize=1;strokeColor=none;fillColor=none;" vertex="1" parent="1">
          <mxGeometry x="630" y="670" width="60" height="30" as="geometry" />
        </mxCell>
        <mxCell id="cnJOetgvGO6HsMZTgjHF-25" value="" style="endArrow=none;html=1;rounded=0;entryX=0;entryY=0.5;entryDx=0;entryDy=0;" edge="1" parent="1" source="ZokC7jPuqegJXK2MM_wK-34" target="cnJOetgvGO6HsMZTgjHF-24">
          <mxGeometry width="50" height="50" relative="1" as="geometry">
            <mxPoint x="430" y="749" as="sourcePoint" />
            <mxPoint x="710" y="730" as="targetPoint" />
          </mxGeometry>
        </mxCell>
        <mxCell id="cnJOetgvGO6HsMZTgjHF-24" value="include" style="text;html=1;align=center;verticalAlign=middle;resizable=0;points=[];autosize=1;strokeColor=none;fillColor=none;" vertex="1" parent="1">
          <mxGeometry x="640" y="730" width="60" height="30" as="geometry" />
        </mxCell>
        <mxCell id="cnJOetgvGO6HsMZTgjHF-27" value="" style="endArrow=none;html=1;rounded=0;entryX=0;entryY=0.5;entryDx=0;entryDy=0;exitX=1;exitY=0.3333333333333333;exitDx=0;exitDy=0;exitPerimeter=0;" edge="1" parent="1" source="ZokC7jPuqegJXK2MM_wK-34" target="cnJOetgvGO6HsMZTgjHF-26">
          <mxGeometry width="50" height="50" relative="1" as="geometry">
            <mxPoint x="430" y="740" as="sourcePoint" />
            <mxPoint x="700" y="585" as="targetPoint" />
          </mxGeometry>
        </mxCell>
        <mxCell id="cnJOetgvGO6HsMZTgjHF-26" value="include" style="text;html=1;align=center;verticalAlign=middle;resizable=0;points=[];autosize=1;strokeColor=none;fillColor=none;" vertex="1" parent="1">
          <mxGeometry x="620" y="585" width="60" height="30" as="geometry" />
        </mxCell>
        <mxCell id="cnJOetgvGO6HsMZTgjHF-28" value="" style="endArrow=none;html=1;rounded=0;entryX=0;entryY=0.5;entryDx=0;entryDy=0;" edge="1" parent="1" source="ZokC7jPuqegJXK2MM_wK-3" target="cnJOetgvGO6HsMZTgjHF-21">
          <mxGeometry width="50" height="50" relative="1" as="geometry">
            <mxPoint x="460" y="494" as="sourcePoint" />
            <mxPoint x="750" y="575" as="targetPoint" />
          </mxGeometry>
        </mxCell>
        <mxCell id="cnJOetgvGO6HsMZTgjHF-21" value="include" style="text;html=1;align=center;verticalAlign=middle;resizable=0;points=[];autosize=1;strokeColor=none;fillColor=none;" vertex="1" parent="1">
          <mxGeometry x="630" y="520" width="60" height="30" as="geometry" />
        </mxCell>
        <mxCell id="cnJOetgvGO6HsMZTgjHF-29" value="" style="endArrow=none;html=1;rounded=0;entryX=0.5;entryY=1;entryDx=0;entryDy=0;exitX=0.5;exitY=0;exitDx=0;exitDy=0;" edge="1" parent="1" source="ZokC7jPuqegJXK2MM_wK-40" target="ZokC7jPuqegJXK2MM_wK-46">
          <mxGeometry width="50" height="50" relative="1" as="geometry">
            <mxPoint x="1060" y="600" as="sourcePoint" />
            <mxPoint x="1005" y="530" as="targetPoint" />
          </mxGeometry>
        </mxCell>
        <mxCell id="ZokC7jPuqegJXK2MM_wK-46" value="include" style="text;html=1;align=center;verticalAlign=middle;resizable=0;points=[];autosize=1;strokeColor=none;fillColor=none;" vertex="1" parent="1">
          <mxGeometry x="1000" y="550" width="60" height="30" as="geometry" />
        </mxCell>
      </root>
    </mxGraphModel>
  </diagram>
  <diagram id="KIa1ZM-8zzw4ZN5GF4xd" name="PÃ¡gina-3">
    <mxGraphModel dx="1090" dy="581" grid="1" gridSize="10" guides="1" tooltips="1" connect="1" arrows="1" fold="1" page="1" pageScale="1" pageWidth="827" pageHeight="1169" math="0" shadow="0">
      <root>
        <mxCell id="0" />
        <mxCell id="1" parent="0" />
        <mxCell id="BPoGgEgJMjrMGvOBhOIr-1" value="" style="rounded=0;whiteSpace=wrap;html=1;" vertex="1" parent="1">
          <mxGeometry x="540" y="485" width="690" height="480" as="geometry" />
        </mxCell>
        <mxCell id="BPoGgEgJMjrMGvOBhOIr-2" value="RRHH" style="shape=umlActor;verticalLabelPosition=bottom;verticalAlign=top;html=1;outlineConnect=0;" vertex="1" parent="1">
          <mxGeometry x="1290" y="715" width="30" height="60" as="geometry" />
        </mxCell>
        <mxCell id="BPoGgEgJMjrMGvOBhOIr-3" value="empleado" style="shape=umlActor;verticalLabelPosition=bottom;verticalAlign=top;html=1;outlineConnect=0;" vertex="1" parent="1">
          <mxGeometry x="400" y="565" width="30" height="60" as="geometry" />
        </mxCell>
        <mxCell id="BPoGgEgJMjrMGvOBhOIr-4" value="&lt;div&gt;RRHH&lt;/div&gt;" style="text;html=1;align=center;verticalAlign=middle;resizable=0;points=[];autosize=1;strokeColor=none;fillColor=none;" vertex="1" parent="1">
          <mxGeometry x="827" y="385" width="60" height="30" as="geometry" />
        </mxCell>
        <mxCell id="BPoGgEgJMjrMGvOBhOIr-5" value="&lt;div&gt;contador&lt;/div&gt;" style="shape=umlActor;verticalLabelPosition=bottom;verticalAlign=top;html=1;outlineConnect=0;" vertex="1" parent="1">
          <mxGeometry x="370" y="825" width="30" height="60" as="geometry" />
        </mxCell>
        <mxCell id="BPoGgEgJMjrMGvOBhOIr-6" value="beneficios" style="ellipse;whiteSpace=wrap;html=1;" vertex="1" parent="1">
          <mxGeometry x="1010" y="750" width="70" height="50" as="geometry" />
        </mxCell>
        <mxCell id="BPoGgEgJMjrMGvOBhOIr-7" value="desempeÃ±o" style="ellipse;whiteSpace=wrap;html=1;" vertex="1" parent="1">
          <mxGeometry x="1020" y="825" width="70" height="50" as="geometry" />
        </mxCell>
        <mxCell id="BPoGgEgJMjrMGvOBhOIr-9" value="registro empleado" style="ellipse;whiteSpace=wrap;html=1;" vertex="1" parent="1">
          <mxGeometry x="1020" y="665" width="70" height="50" as="geometry" />
        </mxCell>
        <mxCell id="BPoGgEgJMjrMGvOBhOIr-10" value="solicitud de vacaciones" style="ellipse;whiteSpace=wrap;html=1;" vertex="1" parent="1">
          <mxGeometry x="710" y="485" width="70" height="50" as="geometry" />
        </mxCell>
        <mxCell id="BPoGgEgJMjrMGvOBhOIr-11" value="informacion" style="ellipse;whiteSpace=wrap;html=1;" vertex="1" parent="1">
          <mxGeometry x="680" y="570" width="70" height="50" as="geometry" />
        </mxCell>
        <mxCell id="BPoGgEgJMjrMGvOBhOIr-12" value="transferencia" style="ellipse;whiteSpace=wrap;html=1;" vertex="1" parent="1">
          <mxGeometry x="690" y="830" width="70" height="50" as="geometry" />
        </mxCell>
        <mxCell id="BPoGgEgJMjrMGvOBhOIr-13" value="" style="endArrow=none;html=1;rounded=0;exitX=1;exitY=0.5;exitDx=0;exitDy=0;" edge="1" parent="1" source="BPoGgEgJMjrMGvOBhOIr-18" target="BPoGgEgJMjrMGvOBhOIr-2">
          <mxGeometry width="50" height="50" relative="1" as="geometry">
            <mxPoint x="990" y="845" as="sourcePoint" />
            <mxPoint x="1040" y="795" as="targetPoint" />
          </mxGeometry>
        </mxCell>
        <mxCell id="BPoGgEgJMjrMGvOBhOIr-14" value="" style="endArrow=none;html=1;rounded=0;exitX=1;exitY=0.5;exitDx=0;exitDy=0;" edge="1" parent="1" source="BPoGgEgJMjrMGvOBhOIr-16" target="BPoGgEgJMjrMGvOBhOIr-2">
          <mxGeometry width="50" height="50" relative="1" as="geometry">
            <mxPoint x="1100" y="884" as="sourcePoint" />
            <mxPoint x="1260" y="825" as="targetPoint" />
          </mxGeometry>
        </mxCell>
        <mxCell id="BPoGgEgJMjrMGvOBhOIr-15" value="" style="endArrow=none;html=1;rounded=0;exitX=1;exitY=0.5;exitDx=0;exitDy=0;" edge="1" parent="1" source="BPoGgEgJMjrMGvOBhOIr-6" target="BPoGgEgJMjrMGvOBhOIr-16">
          <mxGeometry width="50" height="50" relative="1" as="geometry">
            <mxPoint x="1140" y="730" as="sourcePoint" />
            <mxPoint x="1290" y="744" as="targetPoint" />
          </mxGeometry>
        </mxCell>
        <mxCell id="BPoGgEgJMjrMGvOBhOIr-16" value="include" style="text;html=1;align=center;verticalAlign=middle;resizable=0;points=[];autosize=1;strokeColor=none;fillColor=none;" vertex="1" parent="1">
          <mxGeometry x="1130" y="745" width="60" height="30" as="geometry" />
        </mxCell>
        <mxCell id="BPoGgEgJMjrMGvOBhOIr-17" value="" style="endArrow=none;html=1;rounded=0;exitX=1;exitY=0.5;exitDx=0;exitDy=0;" edge="1" parent="1" source="BPoGgEgJMjrMGvOBhOIr-7" target="BPoGgEgJMjrMGvOBhOIr-18">
          <mxGeometry width="50" height="50" relative="1" as="geometry">
            <mxPoint x="1130" y="810" as="sourcePoint" />
            <mxPoint x="1290" y="751" as="targetPoint" />
          </mxGeometry>
        </mxCell>
        <mxCell id="BPoGgEgJMjrMGvOBhOIr-18" value="include" style="text;html=1;align=center;verticalAlign=middle;resizable=0;points=[];autosize=1;strokeColor=none;fillColor=none;" vertex="1" parent="1">
          <mxGeometry x="1140" y="795" width="60" height="30" as="geometry" />
        </mxCell>
        <mxCell id="BPoGgEgJMjrMGvOBhOIr-19" value="aprovo vacaciones" style="ellipse;whiteSpace=wrap;html=1;" vertex="1" parent="1">
          <mxGeometry x="930" y="535" width="70" height="50" as="geometry" />
        </mxCell>
        <mxCell id="BPoGgEgJMjrMGvOBhOIr-20" value="" style="endArrow=none;html=1;rounded=0;exitX=0.983;exitY=0.608;exitDx=0;exitDy=0;exitPerimeter=0;entryX=0;entryY=0.5;entryDx=0;entryDy=0;" edge="1" parent="1" source="BPoGgEgJMjrMGvOBhOIr-25" target="BPoGgEgJMjrMGvOBhOIr-19">
          <mxGeometry width="50" height="50" relative="1" as="geometry">
            <mxPoint x="750" y="765" as="sourcePoint" />
            <mxPoint x="800" y="715" as="targetPoint" />
          </mxGeometry>
        </mxCell>
        <mxCell id="BPoGgEgJMjrMGvOBhOIr-24" value="" style="endArrow=none;html=1;rounded=0;exitX=0.983;exitY=0.608;exitDx=0;exitDy=0;exitPerimeter=0;entryX=0;entryY=0.5;entryDx=0;entryDy=0;" edge="1" parent="1" source="BPoGgEgJMjrMGvOBhOIr-11" target="BPoGgEgJMjrMGvOBhOIr-25">
          <mxGeometry width="50" height="50" relative="1" as="geometry">
            <mxPoint x="649" y="675" as="sourcePoint" />
            <mxPoint x="831" y="690" as="targetPoint" />
          </mxGeometry>
        </mxCell>
        <mxCell id="BPoGgEgJMjrMGvOBhOIr-25" value="extend" style="text;html=1;align=center;verticalAlign=middle;resizable=0;points=[];autosize=1;strokeColor=none;fillColor=none;" vertex="1" parent="1">
          <mxGeometry x="800" y="545" width="60" height="30" as="geometry" />
        </mxCell>
        <mxCell id="BPoGgEgJMjrMGvOBhOIr-30" value="" style="endArrow=none;html=1;rounded=0;entryX=0;entryY=0.5;entryDx=0;entryDy=0;" edge="1" parent="1" source="BPoGgEgJMjrMGvOBhOIr-50" target="BPoGgEgJMjrMGvOBhOIr-10">
          <mxGeometry width="50" height="50" relative="1" as="geometry">
            <mxPoint x="880" y="755" as="sourcePoint" />
            <mxPoint x="930" y="705" as="targetPoint" />
          </mxGeometry>
        </mxCell>
        <mxCell id="BPoGgEgJMjrMGvOBhOIr-32" value="" style="endArrow=none;html=1;rounded=0;entryX=0;entryY=0.5;entryDx=0;entryDy=0;" edge="1" parent="1" source="BPoGgEgJMjrMGvOBhOIr-42" target="BPoGgEgJMjrMGvOBhOIr-11">
          <mxGeometry width="50" height="50" relative="1" as="geometry">
            <mxPoint x="620" y="765" as="sourcePoint" />
            <mxPoint x="830" y="769" as="targetPoint" />
          </mxGeometry>
        </mxCell>
        <mxCell id="BPoGgEgJMjrMGvOBhOIr-39" value="" style="endArrow=none;html=1;rounded=0;entryX=0;entryY=0.5;entryDx=0;entryDy=0;" edge="1" parent="1" source="BPoGgEgJMjrMGvOBhOIr-46" target="BPoGgEgJMjrMGvOBhOIr-12">
          <mxGeometry width="50" height="50" relative="1" as="geometry">
            <mxPoint x="880" y="805" as="sourcePoint" />
            <mxPoint x="930" y="755" as="targetPoint" />
          </mxGeometry>
        </mxCell>
        <mxCell id="BPoGgEgJMjrMGvOBhOIr-41" value="" style="endArrow=none;html=1;rounded=0;entryX=0;entryY=0.5;entryDx=0;entryDy=0;" edge="1" parent="1" source="BPoGgEgJMjrMGvOBhOIr-3" target="BPoGgEgJMjrMGvOBhOIr-42">
          <mxGeometry width="50" height="50" relative="1" as="geometry">
            <mxPoint x="430" y="590" as="sourcePoint" />
            <mxPoint x="670" y="510" as="targetPoint" />
          </mxGeometry>
        </mxCell>
        <mxCell id="BPoGgEgJMjrMGvOBhOIr-42" value="include" style="text;html=1;align=center;verticalAlign=middle;resizable=0;points=[];autosize=1;strokeColor=none;fillColor=none;" vertex="1" parent="1">
          <mxGeometry x="570" y="580" width="60" height="30" as="geometry" />
        </mxCell>
        <mxCell id="BPoGgEgJMjrMGvOBhOIr-45" value="" style="endArrow=none;html=1;rounded=0;entryX=0;entryY=0.5;entryDx=0;entryDy=0;" edge="1" parent="1" source="BPoGgEgJMjrMGvOBhOIr-5" target="BPoGgEgJMjrMGvOBhOIr-46">
          <mxGeometry width="50" height="50" relative="1" as="geometry">
            <mxPoint x="400" y="854" as="sourcePoint" />
            <mxPoint x="680" y="835" as="targetPoint" />
          </mxGeometry>
        </mxCell>
        <mxCell id="BPoGgEgJMjrMGvOBhOIr-46" value="include" style="text;html=1;align=center;verticalAlign=middle;resizable=0;points=[];autosize=1;strokeColor=none;fillColor=none;" vertex="1" parent="1">
          <mxGeometry x="580" y="840" width="60" height="30" as="geometry" />
        </mxCell>
        <mxCell id="BPoGgEgJMjrMGvOBhOIr-49" value="" style="endArrow=none;html=1;rounded=0;entryX=0;entryY=0.5;entryDx=0;entryDy=0;" edge="1" parent="1" source="BPoGgEgJMjrMGvOBhOIr-3" target="BPoGgEgJMjrMGvOBhOIr-50">
          <mxGeometry width="50" height="50" relative="1" as="geometry">
            <mxPoint x="430" y="599" as="sourcePoint" />
            <mxPoint x="720" y="680" as="targetPoint" />
          </mxGeometry>
        </mxCell>
        <mxCell id="BPoGgEgJMjrMGvOBhOIr-50" value="include" style="text;html=1;align=center;verticalAlign=middle;resizable=0;points=[];autosize=1;strokeColor=none;fillColor=none;" vertex="1" parent="1">
          <mxGeometry x="560" y="495" width="60" height="30" as="geometry" />
        </mxCell>
        <mxCell id="BPoGgEgJMjrMGvOBhOIr-56" value="" style="endArrow=none;html=1;rounded=0;exitX=1;exitY=0.5;exitDx=0;exitDy=0;" edge="1" parent="1" source="BPoGgEgJMjrMGvOBhOIr-57" target="BPoGgEgJMjrMGvOBhOIr-2">
          <mxGeometry width="50" height="50" relative="1" as="geometry">
            <mxPoint x="1000" y="770" as="sourcePoint" />
            <mxPoint x="1050" y="720" as="targetPoint" />
          </mxGeometry>
        </mxCell>
        <mxCell id="BPoGgEgJMjrMGvOBhOIr-58" value="" style="endArrow=none;html=1;rounded=0;exitX=1;exitY=0.5;exitDx=0;exitDy=0;" edge="1" parent="1" source="BPoGgEgJMjrMGvOBhOIr-9" target="BPoGgEgJMjrMGvOBhOIr-57">
          <mxGeometry width="50" height="50" relative="1" as="geometry">
            <mxPoint x="1070" y="715" as="sourcePoint" />
            <mxPoint x="1290" y="743" as="targetPoint" />
          </mxGeometry>
        </mxCell>
        <mxCell id="BPoGgEgJMjrMGvOBhOIr-57" value="include" style="text;html=1;align=center;verticalAlign=middle;resizable=0;points=[];autosize=1;strokeColor=none;fillColor=none;" vertex="1" parent="1">
          <mxGeometry x="1130" y="700" width="60" height="30" as="geometry" />
        </mxCell>
        <mxCell id="BPoGgEgJMjrMGvOBhOIr-60" value="" style="endArrow=none;html=1;rounded=0;exitX=1;exitY=0.5;exitDx=0;exitDy=0;" edge="1" parent="1" source="BPoGgEgJMjrMGvOBhOIr-19" target="BPoGgEgJMjrMGvOBhOIr-61">
          <mxGeometry width="50" height="50" relative="1" as="geometry">
            <mxPoint x="1090" y="925" as="sourcePoint" />
            <mxPoint x="1290" y="821" as="targetPoint" />
          </mxGeometry>
        </mxCell>
        <mxCell id="BPoGgEgJMjrMGvOBhOIr-61" value="include" style="text;html=1;align=center;verticalAlign=middle;resizable=0;points=[];autosize=1;strokeColor=none;fillColor=none;" vertex="1" parent="1">
          <mxGeometry x="1080" y="570" width="60" height="30" as="geometry" />
        </mxCell>
        <mxCell id="BPoGgEgJMjrMGvOBhOIr-62" value="" style="endArrow=none;html=1;rounded=0;exitX=0.933;exitY=0.267;exitDx=0;exitDy=0;exitPerimeter=0;entryX=0.25;entryY=0.1;entryDx=0;entryDy=0;entryPerimeter=0;" edge="1" parent="1" source="BPoGgEgJMjrMGvOBhOIr-61" target="BPoGgEgJMjrMGvOBhOIr-2">
          <mxGeometry width="50" height="50" relative="1" as="geometry">
            <mxPoint x="980" y="790" as="sourcePoint" />
            <mxPoint x="1030" y="740" as="targetPoint" />
          </mxGeometry>
        </mxCell>
        <mxCell id="BPoGgEgJMjrMGvOBhOIr-63" value="" style="endArrow=none;html=1;rounded=0;entryX=0.943;entryY=0.72;entryDx=0;entryDy=0;entryPerimeter=0;exitX=0;exitY=0.5;exitDx=0;exitDy=0;" edge="1" parent="1" source="BPoGgEgJMjrMGvOBhOIr-64" target="BPoGgEgJMjrMGvOBhOIr-11">
          <mxGeometry width="50" height="50" relative="1" as="geometry">
            <mxPoint x="840" y="740" as="sourcePoint" />
            <mxPoint x="890" y="690" as="targetPoint" />
          </mxGeometry>
        </mxCell>
        <mxCell id="BPoGgEgJMjrMGvOBhOIr-65" value="" style="endArrow=none;html=1;rounded=0;entryX=0.943;entryY=0.72;entryDx=0;entryDy=0;entryPerimeter=0;exitX=0;exitY=0.5;exitDx=0;exitDy=0;" edge="1" parent="1" source="BPoGgEgJMjrMGvOBhOIr-9" target="BPoGgEgJMjrMGvOBhOIr-64">
          <mxGeometry width="50" height="50" relative="1" as="geometry">
            <mxPoint x="1020" y="690" as="sourcePoint" />
            <mxPoint x="746" y="606" as="targetPoint" />
          </mxGeometry>
        </mxCell>
        <mxCell id="BPoGgEgJMjrMGvOBhOIr-64" value="include" style="text;html=1;align=center;verticalAlign=middle;resizable=0;points=[];autosize=1;strokeColor=none;fillColor=none;" vertex="1" parent="1">
          <mxGeometry x="855" y="635" width="60" height="30" as="geometry" />
        </mxCell>
      </root>
    </mxGraphModel>
  </diagram>
  <diagram id="6hodRZksiIMLa6rIwFjX" name="PÃ¡gina-4">
    <mxGraphModel dx="1796" dy="517" grid="1" gridSize="10" guides="1" tooltips="1" connect="1" arrows="1" fold="1" page="1" pageScale="1" pageWidth="827" pageHeight="1169" math="0" shadow="0">
      <root>
        <mxCell id="0" />
        <mxCell id="1" parent="0" />
        <mxCell id="5WSxQx_dEbO7oNECFxWQ-1" value="" style="rounded=0;whiteSpace=wrap;html=1;" vertex="1" parent="1">
          <mxGeometry x="30" y="325" width="820" height="480" as="geometry" />
        </mxCell>
        <mxCell id="5WSxQx_dEbO7oNECFxWQ-2" value="usuario&lt;div&gt;&lt;br&gt;&lt;/div&gt;" style="shape=umlActor;verticalLabelPosition=bottom;verticalAlign=top;html=1;outlineConnect=0;" vertex="1" parent="1">
          <mxGeometry x="890" y="555" width="30" height="60" as="geometry" />
        </mxCell>
        <mxCell id="5WSxQx_dEbO7oNECFxWQ-3" value="empleado" style="shape=umlActor;verticalLabelPosition=bottom;verticalAlign=top;html=1;outlineConnect=0;" vertex="1" parent="1">
          <mxGeometry x="-50" y="410" width="30" height="60" as="geometry" />
        </mxCell>
        <mxCell id="5WSxQx_dEbO7oNECFxWQ-4" value="clima" style="text;html=1;align=center;verticalAlign=middle;resizable=0;points=[];autosize=1;strokeColor=none;fillColor=none;" vertex="1" parent="1">
          <mxGeometry x="382" y="230" width="50" height="30" as="geometry" />
        </mxCell>
        <mxCell id="5WSxQx_dEbO7oNECFxWQ-6" value="pronostico" style="ellipse;whiteSpace=wrap;html=1;" vertex="1" parent="1">
          <mxGeometry x="575" y="440" width="70" height="50" as="geometry" />
        </mxCell>
        <mxCell id="5WSxQx_dEbO7oNECFxWQ-7" value="alertas" style="ellipse;whiteSpace=wrap;html=1;" vertex="1" parent="1">
          <mxGeometry x="550" y="350" width="70" height="50" as="geometry" />
        </mxCell>
        <mxCell id="5WSxQx_dEbO7oNECFxWQ-8" value="consultar&amp;nbsp;" style="ellipse;whiteSpace=wrap;html=1;" vertex="1" parent="1">
          <mxGeometry x="570" y="530" width="70" height="50" as="geometry" />
        </mxCell>
        <mxCell id="5WSxQx_dEbO7oNECFxWQ-9" value="actualizacion clima" style="ellipse;whiteSpace=wrap;html=1;" vertex="1" parent="1">
          <mxGeometry x="270" y="360" width="70" height="50" as="geometry" />
        </mxCell>
        <mxCell id="5WSxQx_dEbO7oNECFxWQ-12" value="" style="endArrow=none;html=1;rounded=0;exitX=1;exitY=0.5;exitDx=0;exitDy=0;" edge="1" parent="1" source="5WSxQx_dEbO7oNECFxWQ-17" target="5WSxQx_dEbO7oNECFxWQ-2">
          <mxGeometry width="50" height="50" relative="1" as="geometry">
            <mxPoint x="540" y="690" as="sourcePoint" />
            <mxPoint x="590" y="640" as="targetPoint" />
          </mxGeometry>
        </mxCell>
        <mxCell id="5WSxQx_dEbO7oNECFxWQ-13" value="" style="endArrow=none;html=1;rounded=0;exitX=1;exitY=0.5;exitDx=0;exitDy=0;" edge="1" parent="1" source="5WSxQx_dEbO7oNECFxWQ-15" target="5WSxQx_dEbO7oNECFxWQ-2">
          <mxGeometry width="50" height="50" relative="1" as="geometry">
            <mxPoint x="650" y="729" as="sourcePoint" />
            <mxPoint x="810" y="670" as="targetPoint" />
          </mxGeometry>
        </mxCell>
        <mxCell id="5WSxQx_dEbO7oNECFxWQ-14" value="" style="endArrow=none;html=1;rounded=0;exitX=1;exitY=0.5;exitDx=0;exitDy=0;" edge="1" parent="1" source="5WSxQx_dEbO7oNECFxWQ-6" target="5WSxQx_dEbO7oNECFxWQ-15">
          <mxGeometry width="50" height="50" relative="1" as="geometry">
            <mxPoint x="690" y="575" as="sourcePoint" />
            <mxPoint x="840" y="589" as="targetPoint" />
          </mxGeometry>
        </mxCell>
        <mxCell id="5WSxQx_dEbO7oNECFxWQ-15" value="include" style="text;html=1;align=center;verticalAlign=middle;resizable=0;points=[];autosize=1;strokeColor=none;fillColor=none;" vertex="1" parent="1">
          <mxGeometry x="700" y="460" width="60" height="30" as="geometry" />
        </mxCell>
        <mxCell id="5WSxQx_dEbO7oNECFxWQ-16" value="" style="endArrow=none;html=1;rounded=0;exitX=1;exitY=0.5;exitDx=0;exitDy=0;" edge="1" parent="1" source="5WSxQx_dEbO7oNECFxWQ-7" target="5WSxQx_dEbO7oNECFxWQ-17">
          <mxGeometry width="50" height="50" relative="1" as="geometry">
            <mxPoint x="680" y="655" as="sourcePoint" />
            <mxPoint x="840" y="596" as="targetPoint" />
          </mxGeometry>
        </mxCell>
        <mxCell id="5WSxQx_dEbO7oNECFxWQ-17" value="include" style="text;html=1;align=center;verticalAlign=middle;resizable=0;points=[];autosize=1;strokeColor=none;fillColor=none;" vertex="1" parent="1">
          <mxGeometry x="700" y="370" width="60" height="30" as="geometry" />
        </mxCell>
        <mxCell id="5WSxQx_dEbO7oNECFxWQ-22" value="" style="endArrow=none;html=1;rounded=0;entryX=0;entryY=0.5;entryDx=0;entryDy=0;" edge="1" parent="1" source="5WSxQx_dEbO7oNECFxWQ-30" target="5WSxQx_dEbO7oNECFxWQ-9">
          <mxGeometry width="50" height="50" relative="1" as="geometry">
            <mxPoint x="430" y="600" as="sourcePoint" />
            <mxPoint x="480" y="550" as="targetPoint" />
          </mxGeometry>
        </mxCell>
        <mxCell id="5WSxQx_dEbO7oNECFxWQ-29" value="" style="endArrow=none;html=1;rounded=0;entryX=0;entryY=0.5;entryDx=0;entryDy=0;" edge="1" parent="1" source="5WSxQx_dEbO7oNECFxWQ-3" target="5WSxQx_dEbO7oNECFxWQ-30">
          <mxGeometry width="50" height="50" relative="1" as="geometry">
            <mxPoint x="-20" y="444" as="sourcePoint" />
            <mxPoint x="270" y="525" as="targetPoint" />
          </mxGeometry>
        </mxCell>
        <mxCell id="5WSxQx_dEbO7oNECFxWQ-30" value="include" style="text;html=1;align=center;verticalAlign=middle;resizable=0;points=[];autosize=1;strokeColor=none;fillColor=none;" vertex="1" parent="1">
          <mxGeometry x="110" y="400" width="60" height="30" as="geometry" />
        </mxCell>
        <mxCell id="5WSxQx_dEbO7oNECFxWQ-31" value="" style="endArrow=none;html=1;rounded=0;exitX=1;exitY=0.5;exitDx=0;exitDy=0;" edge="1" parent="1" source="5WSxQx_dEbO7oNECFxWQ-33" target="5WSxQx_dEbO7oNECFxWQ-2">
          <mxGeometry width="50" height="50" relative="1" as="geometry">
            <mxPoint x="550" y="615" as="sourcePoint" />
            <mxPoint x="600" y="565" as="targetPoint" />
          </mxGeometry>
        </mxCell>
        <mxCell id="5WSxQx_dEbO7oNECFxWQ-32" value="" style="endArrow=none;html=1;rounded=0;exitX=1;exitY=0.5;exitDx=0;exitDy=0;" edge="1" parent="1" source="5WSxQx_dEbO7oNECFxWQ-8" target="5WSxQx_dEbO7oNECFxWQ-33">
          <mxGeometry width="50" height="50" relative="1" as="geometry">
            <mxPoint x="620" y="560" as="sourcePoint" />
            <mxPoint x="840" y="588" as="targetPoint" />
          </mxGeometry>
        </mxCell>
        <mxCell id="5WSxQx_dEbO7oNECFxWQ-33" value="include" style="text;html=1;align=center;verticalAlign=middle;resizable=0;points=[];autosize=1;strokeColor=none;fillColor=none;" vertex="1" parent="1">
          <mxGeometry x="700" y="550" width="60" height="30" as="geometry" />
        </mxCell>
        <mxCell id="2UeQRezgDOyLutWgKCTg-3" value="ubicacion" style="ellipse;whiteSpace=wrap;html=1;" vertex="1" parent="1">
          <mxGeometry x="575" y="710" width="70" height="50" as="geometry" />
        </mxCell>
        <mxCell id="2UeQRezgDOyLutWgKCTg-4" value="" style="endArrow=none;html=1;rounded=0;exitX=1;exitY=0.5;exitDx=0;exitDy=0;" edge="1" parent="1" source="2UeQRezgDOyLutWgKCTg-5" target="5WSxQx_dEbO7oNECFxWQ-2">
          <mxGeometry width="50" height="50" relative="1" as="geometry">
            <mxPoint x="560" y="620" as="sourcePoint" />
            <mxPoint x="610" y="570" as="targetPoint" />
          </mxGeometry>
        </mxCell>
        <mxCell id="2UeQRezgDOyLutWgKCTg-6" value="" style="endArrow=none;html=1;rounded=0;exitX=1;exitY=0.5;exitDx=0;exitDy=0;" edge="1" parent="1" source="2UeQRezgDOyLutWgKCTg-3" target="2UeQRezgDOyLutWgKCTg-5">
          <mxGeometry width="50" height="50" relative="1" as="geometry">
            <mxPoint x="600" y="745" as="sourcePoint" />
            <mxPoint x="840" y="599" as="targetPoint" />
          </mxGeometry>
        </mxCell>
        <mxCell id="2UeQRezgDOyLutWgKCTg-5" value="include" style="text;html=1;align=center;verticalAlign=middle;resizable=0;points=[];autosize=1;strokeColor=none;fillColor=none;" vertex="1" parent="1">
          <mxGeometry x="730" y="680" width="60" height="30" as="geometry" />
        </mxCell>
        <mxCell id="2UeQRezgDOyLutWgKCTg-8" value="" style="endArrow=none;html=1;rounded=0;exitX=1;exitY=0.5;exitDx=0;exitDy=0;entryX=0;entryY=0.5;entryDx=0;entryDy=0;" edge="1" parent="1" source="2UeQRezgDOyLutWgKCTg-11" target="5WSxQx_dEbO7oNECFxWQ-8">
          <mxGeometry width="50" height="50" relative="1" as="geometry">
            <mxPoint x="342" y="409" as="sourcePoint" />
            <mxPoint x="472" y="421" as="targetPoint" />
          </mxGeometry>
        </mxCell>
        <mxCell id="2UeQRezgDOyLutWgKCTg-9" value="" style="endArrow=none;html=1;rounded=0;exitX=1;exitY=0.5;exitDx=0;exitDy=0;entryX=0;entryY=0.5;entryDx=0;entryDy=0;" edge="1" parent="1" source="2UeQRezgDOyLutWgKCTg-10" target="5WSxQx_dEbO7oNECFxWQ-6">
          <mxGeometry width="50" height="50" relative="1" as="geometry">
            <mxPoint x="450" y="480" as="sourcePoint" />
            <mxPoint x="580" y="492" as="targetPoint" />
          </mxGeometry>
        </mxCell>
        <mxCell id="2UeQRezgDOyLutWgKCTg-12" value="" style="endArrow=none;html=1;rounded=0;exitX=1;exitY=0.5;exitDx=0;exitDy=0;entryX=0;entryY=0.5;entryDx=0;entryDy=0;" edge="1" parent="1" source="5WSxQx_dEbO7oNECFxWQ-9" target="2UeQRezgDOyLutWgKCTg-11">
          <mxGeometry width="50" height="50" relative="1" as="geometry">
            <mxPoint x="340" y="385" as="sourcePoint" />
            <mxPoint x="520" y="385" as="targetPoint" />
          </mxGeometry>
        </mxCell>
        <mxCell id="2UeQRezgDOyLutWgKCTg-11" value="include" style="text;html=1;align=center;verticalAlign=middle;resizable=0;points=[];autosize=1;strokeColor=none;fillColor=none;" vertex="1" parent="1">
          <mxGeometry x="350" y="540" width="60" height="30" as="geometry" />
        </mxCell>
        <mxCell id="2UeQRezgDOyLutWgKCTg-13" value="" style="endArrow=none;html=1;rounded=0;exitX=1;exitY=0.5;exitDx=0;exitDy=0;entryX=0;entryY=0.5;entryDx=0;entryDy=0;" edge="1" parent="1" source="5WSxQx_dEbO7oNECFxWQ-9" target="2UeQRezgDOyLutWgKCTg-10">
          <mxGeometry width="50" height="50" relative="1" as="geometry">
            <mxPoint x="340" y="385" as="sourcePoint" />
            <mxPoint x="530" y="475" as="targetPoint" />
          </mxGeometry>
        </mxCell>
        <mxCell id="2UeQRezgDOyLutWgKCTg-10" value="include" style="text;html=1;align=center;verticalAlign=middle;resizable=0;points=[];autosize=1;strokeColor=none;fillColor=none;" vertex="1" parent="1">
          <mxGeometry x="400" y="420" width="60" height="30" as="geometry" />
        </mxCell>
        <mxCell id="2UeQRezgDOyLutWgKCTg-14" value="" style="endArrow=none;html=1;rounded=0;exitX=0.5;exitY=0;exitDx=0;exitDy=0;entryX=0.5;entryY=1;entryDx=0;entryDy=0;" edge="1" parent="1" source="2UeQRezgDOyLutWgKCTg-15" target="5WSxQx_dEbO7oNECFxWQ-8">
          <mxGeometry width="50" height="50" relative="1" as="geometry">
            <mxPoint x="510" y="580" as="sourcePoint" />
            <mxPoint x="560" y="530" as="targetPoint" />
          </mxGeometry>
        </mxCell>
        <mxCell id="2UeQRezgDOyLutWgKCTg-16" value="" style="endArrow=none;html=1;rounded=0;exitX=0.5;exitY=0;exitDx=0;exitDy=0;entryX=0.5;entryY=1;entryDx=0;entryDy=0;" edge="1" parent="1" source="2UeQRezgDOyLutWgKCTg-3" target="2UeQRezgDOyLutWgKCTg-15">
          <mxGeometry width="50" height="50" relative="1" as="geometry">
            <mxPoint x="615" y="690" as="sourcePoint" />
            <mxPoint x="615" y="605" as="targetPoint" />
          </mxGeometry>
        </mxCell>
        <mxCell id="2UeQRezgDOyLutWgKCTg-15" value="include" style="text;html=1;align=center;verticalAlign=middle;resizable=0;points=[];autosize=1;strokeColor=none;fillColor=none;" vertex="1" parent="1">
          <mxGeometry x="575" y="630" width="60" height="30" as="geometry" />
        </mxCell>
      </root>
    </mxGraphModel>
  </diagram>
  <diagram id="jldLgXA-f3lnxccuObBY" name="PÃ¡gina-5">
    <mxGraphModel dx="969" dy="517" grid="1" gridSize="10" guides="1" tooltips="1" connect="1" arrows="1" fold="1" page="1" pageScale="1" pageWidth="827" pageHeight="1169" math="0" shadow="0">
      <root>
        <mxCell id="0" />
        <mxCell id="1" parent="0" />
        <mxCell id="VodQnWRG-cKzNfB8CCZO-1" value="" style="rounded=0;whiteSpace=wrap;html=1;" vertex="1" parent="1">
          <mxGeometry x="502" y="585" width="690" height="480" as="geometry" />
        </mxCell>
        <mxCell id="VodQnWRG-cKzNfB8CCZO-2" value="cliente" style="shape=umlActor;verticalLabelPosition=bottom;verticalAlign=top;html=1;outlineConnect=0;" vertex="1" parent="1">
          <mxGeometry x="1390" y="840" width="30" height="60" as="geometry" />
        </mxCell>
        <mxCell id="VodQnWRG-cKzNfB8CCZO-3" value="pago" style="shape=umlActor;verticalLabelPosition=bottom;verticalAlign=top;html=1;outlineConnect=0;" vertex="1" parent="1">
          <mxGeometry x="399" y="880" width="30" height="60" as="geometry" />
        </mxCell>
        <mxCell id="VodQnWRG-cKzNfB8CCZO-4" value="&lt;div&gt;RRHH&lt;/div&gt;" style="text;html=1;align=center;verticalAlign=middle;resizable=0;points=[];autosize=1;strokeColor=none;fillColor=none;" vertex="1" parent="1">
          <mxGeometry x="817" y="500" width="60" height="30" as="geometry" />
        </mxCell>
        <mxCell id="VodQnWRG-cKzNfB8CCZO-6" value="eliminar producto carrito" style="ellipse;whiteSpace=wrap;html=1;" vertex="1" parent="1">
          <mxGeometry x="860" y="710" width="70" height="50" as="geometry" />
        </mxCell>
        <mxCell id="VodQnWRG-cKzNfB8CCZO-7" value="cantidad" style="ellipse;whiteSpace=wrap;html=1;" vertex="1" parent="1">
          <mxGeometry x="850" y="780" width="70" height="50" as="geometry" />
        </mxCell>
        <mxCell id="VodQnWRG-cKzNfB8CCZO-8" value="agregar producto carrito" style="ellipse;whiteSpace=wrap;html=1;" vertex="1" parent="1">
          <mxGeometry x="850" y="610" width="70" height="50" as="geometry" />
        </mxCell>
        <mxCell id="VodQnWRG-cKzNfB8CCZO-10" value="sistema pago" style="ellipse;whiteSpace=wrap;html=1;" vertex="1" parent="1">
          <mxGeometry x="650" y="875" width="70" height="50" as="geometry" />
        </mxCell>
        <mxCell id="VodQnWRG-cKzNfB8CCZO-12" value="" style="endArrow=none;html=1;rounded=0;exitX=1;exitY=0.5;exitDx=0;exitDy=0;" edge="1" parent="1" source="VodQnWRG-cKzNfB8CCZO-17" target="VodQnWRG-cKzNfB8CCZO-2">
          <mxGeometry width="50" height="50" relative="1" as="geometry">
            <mxPoint x="980" y="960" as="sourcePoint" />
            <mxPoint x="1030" y="910" as="targetPoint" />
          </mxGeometry>
        </mxCell>
        <mxCell id="VodQnWRG-cKzNfB8CCZO-13" value="" style="endArrow=none;html=1;rounded=0;exitX=1;exitY=0.5;exitDx=0;exitDy=0;" edge="1" parent="1" source="VodQnWRG-cKzNfB8CCZO-15" target="VodQnWRG-cKzNfB8CCZO-2">
          <mxGeometry width="50" height="50" relative="1" as="geometry">
            <mxPoint x="1090" y="999" as="sourcePoint" />
            <mxPoint x="1250" y="940" as="targetPoint" />
          </mxGeometry>
        </mxCell>
        <mxCell id="VodQnWRG-cKzNfB8CCZO-14" value="" style="endArrow=none;html=1;rounded=0;exitX=1;exitY=0.5;exitDx=0;exitDy=0;" edge="1" parent="1" source="VodQnWRG-cKzNfB8CCZO-6" target="VodQnWRG-cKzNfB8CCZO-15">
          <mxGeometry width="50" height="50" relative="1" as="geometry">
            <mxPoint x="1130" y="845" as="sourcePoint" />
            <mxPoint x="1280" y="859" as="targetPoint" />
          </mxGeometry>
        </mxCell>
        <mxCell id="VodQnWRG-cKzNfB8CCZO-15" value="include" style="text;html=1;align=center;verticalAlign=middle;resizable=0;points=[];autosize=1;strokeColor=none;fillColor=none;" vertex="1" parent="1">
          <mxGeometry x="1050" y="720" width="60" height="30" as="geometry" />
        </mxCell>
        <mxCell id="VodQnWRG-cKzNfB8CCZO-16" value="" style="endArrow=none;html=1;rounded=0;exitX=1;exitY=0.5;exitDx=0;exitDy=0;" edge="1" parent="1" source="VodQnWRG-cKzNfB8CCZO-7" target="VodQnWRG-cKzNfB8CCZO-17">
          <mxGeometry width="50" height="50" relative="1" as="geometry">
            <mxPoint x="1120" y="925" as="sourcePoint" />
            <mxPoint x="1280" y="866" as="targetPoint" />
          </mxGeometry>
        </mxCell>
        <mxCell id="VodQnWRG-cKzNfB8CCZO-17" value="include" style="text;html=1;align=center;verticalAlign=middle;resizable=0;points=[];autosize=1;strokeColor=none;fillColor=none;" vertex="1" parent="1">
          <mxGeometry x="1050" y="790" width="60" height="30" as="geometry" />
        </mxCell>
        <mxCell id="VodQnWRG-cKzNfB8CCZO-23" value="" style="endArrow=none;html=1;rounded=0;entryX=0;entryY=0.5;entryDx=0;entryDy=0;" edge="1" parent="1" source="VodQnWRG-cKzNfB8CCZO-26" target="VodQnWRG-cKzNfB8CCZO-10">
          <mxGeometry width="50" height="50" relative="1" as="geometry">
            <mxPoint x="610" y="880" as="sourcePoint" />
            <mxPoint x="820" y="884" as="targetPoint" />
          </mxGeometry>
        </mxCell>
        <mxCell id="VodQnWRG-cKzNfB8CCZO-25" value="" style="endArrow=none;html=1;rounded=0;entryX=0;entryY=0.5;entryDx=0;entryDy=0;" edge="1" parent="1" source="VodQnWRG-cKzNfB8CCZO-3" target="VodQnWRG-cKzNfB8CCZO-26">
          <mxGeometry width="50" height="50" relative="1" as="geometry">
            <mxPoint x="420" y="705" as="sourcePoint" />
            <mxPoint x="660" y="625" as="targetPoint" />
          </mxGeometry>
        </mxCell>
        <mxCell id="VodQnWRG-cKzNfB8CCZO-26" value="include" style="text;html=1;align=center;verticalAlign=middle;resizable=0;points=[];autosize=1;strokeColor=none;fillColor=none;" vertex="1" parent="1">
          <mxGeometry x="540" y="895" width="60" height="30" as="geometry" />
        </mxCell>
        <mxCell id="VodQnWRG-cKzNfB8CCZO-31" value="" style="endArrow=none;html=1;rounded=0;exitX=1;exitY=0.5;exitDx=0;exitDy=0;" edge="1" parent="1" source="VodQnWRG-cKzNfB8CCZO-33" target="VodQnWRG-cKzNfB8CCZO-2">
          <mxGeometry width="50" height="50" relative="1" as="geometry">
            <mxPoint x="990" y="885" as="sourcePoint" />
            <mxPoint x="1040" y="835" as="targetPoint" />
          </mxGeometry>
        </mxCell>
        <mxCell id="VodQnWRG-cKzNfB8CCZO-32" value="" style="endArrow=none;html=1;rounded=0;exitX=1;exitY=0.5;exitDx=0;exitDy=0;" edge="1" parent="1" source="VodQnWRG-cKzNfB8CCZO-8" target="VodQnWRG-cKzNfB8CCZO-33">
          <mxGeometry width="50" height="50" relative="1" as="geometry">
            <mxPoint x="1060" y="830" as="sourcePoint" />
            <mxPoint x="1280" y="858" as="targetPoint" />
          </mxGeometry>
        </mxCell>
        <mxCell id="VodQnWRG-cKzNfB8CCZO-33" value="include" style="text;html=1;align=center;verticalAlign=middle;resizable=0;points=[];autosize=1;strokeColor=none;fillColor=none;" vertex="1" parent="1">
          <mxGeometry x="1050" y="620" width="60" height="30" as="geometry" />
        </mxCell>
        <mxCell id="VodQnWRG-cKzNfB8CCZO-40" value="cupon descuento" style="ellipse;whiteSpace=wrap;html=1;" vertex="1" parent="1">
          <mxGeometry x="877" y="905" width="70" height="50" as="geometry" />
        </mxCell>
        <mxCell id="VodQnWRG-cKzNfB8CCZO-41" value="" style="endArrow=none;html=1;rounded=0;exitX=1;exitY=0.5;exitDx=0;exitDy=0;" edge="1" parent="1" source="VodQnWRG-cKzNfB8CCZO-40" target="VodQnWRG-cKzNfB8CCZO-42">
          <mxGeometry width="50" height="50" relative="1" as="geometry">
            <mxPoint x="1120" y="1020" as="sourcePoint" />
            <mxPoint x="1280" y="961" as="targetPoint" />
          </mxGeometry>
        </mxCell>
        <mxCell id="VodQnWRG-cKzNfB8CCZO-42" value="include" style="text;html=1;align=center;verticalAlign=middle;resizable=0;points=[];autosize=1;strokeColor=none;fillColor=none;" vertex="1" parent="1">
          <mxGeometry x="1050" y="915" width="60" height="30" as="geometry" />
        </mxCell>
        <mxCell id="VodQnWRG-cKzNfB8CCZO-43" value="carrito total" style="ellipse;whiteSpace=wrap;html=1;" vertex="1" parent="1">
          <mxGeometry x="870" y="840" width="70" height="50" as="geometry" />
        </mxCell>
        <mxCell id="VodQnWRG-cKzNfB8CCZO-44" value="" style="endArrow=none;html=1;rounded=0;exitX=1;exitY=0.5;exitDx=0;exitDy=0;" edge="1" parent="1" source="VodQnWRG-cKzNfB8CCZO-43" target="VodQnWRG-cKzNfB8CCZO-45">
          <mxGeometry width="50" height="50" relative="1" as="geometry">
            <mxPoint x="1240" y="955" as="sourcePoint" />
            <mxPoint x="1400" y="896" as="targetPoint" />
          </mxGeometry>
        </mxCell>
        <mxCell id="VodQnWRG-cKzNfB8CCZO-45" value="include" style="text;html=1;align=center;verticalAlign=middle;resizable=0;points=[];autosize=1;strokeColor=none;fillColor=none;" vertex="1" parent="1">
          <mxGeometry x="1050" y="850" width="60" height="30" as="geometry" />
        </mxCell>
        <mxCell id="VodQnWRG-cKzNfB8CCZO-46" value="pago" style="ellipse;whiteSpace=wrap;html=1;" vertex="1" parent="1">
          <mxGeometry x="877" y="985" width="70" height="50" as="geometry" />
        </mxCell>
        <mxCell id="VodQnWRG-cKzNfB8CCZO-47" value="" style="endArrow=none;html=1;rounded=0;exitX=1;exitY=0.5;exitDx=0;exitDy=0;" edge="1" parent="1" source="VodQnWRG-cKzNfB8CCZO-46" target="VodQnWRG-cKzNfB8CCZO-48">
          <mxGeometry width="50" height="50" relative="1" as="geometry">
            <mxPoint x="1140" y="1100" as="sourcePoint" />
            <mxPoint x="1300" y="1041" as="targetPoint" />
          </mxGeometry>
        </mxCell>
        <mxCell id="VodQnWRG-cKzNfB8CCZO-48" value="include" style="text;html=1;align=center;verticalAlign=middle;resizable=0;points=[];autosize=1;strokeColor=none;fillColor=none;" vertex="1" parent="1">
          <mxGeometry x="1050" y="995" width="60" height="30" as="geometry" />
        </mxCell>
        <mxCell id="VodQnWRG-cKzNfB8CCZO-49" value="" style="endArrow=none;html=1;rounded=0;exitX=1.086;exitY=0.659;exitDx=0;exitDy=0;exitPerimeter=0;" edge="1" parent="1" source="VodQnWRG-cKzNfB8CCZO-42" target="VodQnWRG-cKzNfB8CCZO-2">
          <mxGeometry width="50" height="50" relative="1" as="geometry">
            <mxPoint x="1170" y="957" as="sourcePoint" />
            <mxPoint x="1400" y="930" as="targetPoint" />
          </mxGeometry>
        </mxCell>
        <mxCell id="VodQnWRG-cKzNfB8CCZO-50" value="" style="endArrow=none;html=1;rounded=0;exitX=0.949;exitY=0.384;exitDx=0;exitDy=0;exitPerimeter=0;" edge="1" parent="1" source="VodQnWRG-cKzNfB8CCZO-48" target="VodQnWRG-cKzNfB8CCZO-2">
          <mxGeometry width="50" height="50" relative="1" as="geometry">
            <mxPoint x="1180" y="1027" as="sourcePoint" />
            <mxPoint x="1410" y="1000" as="targetPoint" />
          </mxGeometry>
        </mxCell>
        <mxCell id="VodQnWRG-cKzNfB8CCZO-51" value="" style="endArrow=none;html=1;rounded=0;exitX=0.998;exitY=0.541;exitDx=0;exitDy=0;exitPerimeter=0;entryX=0.5;entryY=0.5;entryDx=0;entryDy=0;entryPerimeter=0;" edge="1" parent="1" source="VodQnWRG-cKzNfB8CCZO-45" target="VodQnWRG-cKzNfB8CCZO-2">
          <mxGeometry width="50" height="50" relative="1" as="geometry">
            <mxPoint x="1220" y="937" as="sourcePoint" />
            <mxPoint x="1280" y="870" as="targetPoint" />
          </mxGeometry>
        </mxCell>
        <mxCell id="3sfVpRVOpwE6kHV743tu-2" value="" style="endArrow=none;html=1;rounded=0;entryX=0.041;entryY=0.316;entryDx=0;entryDy=0;entryPerimeter=0;exitX=1;exitY=0.5;exitDx=0;exitDy=0;" edge="1" parent="1" source="VodQnWRG-cKzNfB8CCZO-10" target="VodQnWRG-cKzNfB8CCZO-46">
          <mxGeometry width="50" height="50" relative="1" as="geometry">
            <mxPoint x="750" y="900" as="sourcePoint" />
            <mxPoint x="800" y="850" as="targetPoint" />
          </mxGeometry>
        </mxCell>
      </root>
    </mxGraphModel>
  </diagram>
  <diagram id="9Eqi0cKhzAq1KRUsYlIN" name="PÃ¡gina-6">
    <mxGraphModel dx="872" dy="1634" grid="1" gridSize="10" guides="1" tooltips="1" connect="1" arrows="1" fold="1" page="1" pageScale="1" pageWidth="827" pageHeight="1169" math="0" shadow="0">
      <root>
        <mxCell id="0" />
        <mxCell id="1" parent="0" />
        <mxCell id="PquL24Wd1NJU8HrAwHON-1" value="" style="rounded=0;whiteSpace=wrap;html=1;" vertex="1" parent="1">
          <mxGeometry x="70" y="35" width="680" height="410" as="geometry" />
        </mxCell>
        <mxCell id="PquL24Wd1NJU8HrAwHON-2" value="Actor" style="shape=umlActor;verticalLabelPosition=bottom;verticalAlign=top;html=1;outlineConnect=0;" vertex="1" parent="1">
          <mxGeometry y="190" width="30" height="60" as="geometry" />
        </mxCell>
        <mxCell id="PquL24Wd1NJU8HrAwHON-3" value="Actor" style="shape=umlActor;verticalLabelPosition=bottom;verticalAlign=top;html=1;outlineConnect=0;" vertex="1" parent="1">
          <mxGeometry x="810" y="180" width="30" height="60" as="geometry" />
        </mxCell>
        <mxCell id="PquL24Wd1NJU8HrAwHON-5" value="administrar" style="ellipse;whiteSpace=wrap;html=1;" vertex="1" parent="1">
          <mxGeometry x="180" y="190" width="70" height="40" as="geometry" />
        </mxCell>
        <mxCell id="PquL24Wd1NJU8HrAwHON-6" value="reserve realizada" style="ellipse;whiteSpace=wrap;html=1;" vertex="1" parent="1">
          <mxGeometry x="550" y="70" width="70" height="40" as="geometry" />
        </mxCell>
        <mxCell id="PquL24Wd1NJU8HrAwHON-7" value="cancelar reserva" style="ellipse;whiteSpace=wrap;html=1;" vertex="1" parent="1">
          <mxGeometry x="550" y="150" width="70" height="40" as="geometry" />
        </mxCell>
        <mxCell id="PquL24Wd1NJU8HrAwHON-8" value="disposibilidad" style="ellipse;whiteSpace=wrap;html=1;" vertex="1" parent="1">
          <mxGeometry x="550" y="220" width="70" height="40" as="geometry" />
        </mxCell>
        <mxCell id="PquL24Wd1NJU8HrAwHON-9" value="reserva activa" style="ellipse;whiteSpace=wrap;html=1;" vertex="1" parent="1">
          <mxGeometry x="540" y="280" width="70" height="40" as="geometry" />
        </mxCell>
        <mxCell id="PquL24Wd1NJU8HrAwHON-13" value="modificar reserva" style="ellipse;whiteSpace=wrap;html=1;" vertex="1" parent="1">
          <mxGeometry x="550" y="350" width="70" height="40" as="geometry" />
        </mxCell>
        <mxCell id="PquL24Wd1NJU8HrAwHON-14" value="confirmar reserva" style="ellipse;whiteSpace=wrap;html=1;" vertex="1" parent="1">
          <mxGeometry x="150" y="290" width="70" height="40" as="geometry" />
        </mxCell>
        <mxCell id="PquL24Wd1NJU8HrAwHON-15" value="" style="endArrow=none;html=1;rounded=0;entryX=0;entryY=0.5;entryDx=0;entryDy=0;" edge="1" parent="1" source="PquL24Wd1NJU8HrAwHON-38" target="PquL24Wd1NJU8HrAwHON-5">
          <mxGeometry width="50" height="50" relative="1" as="geometry">
            <mxPoint x="400" y="290" as="sourcePoint" />
            <mxPoint x="450" y="240" as="targetPoint" />
          </mxGeometry>
        </mxCell>
        <mxCell id="PquL24Wd1NJU8HrAwHON-17" value="" style="endArrow=none;html=1;rounded=0;entryX=0;entryY=0.5;entryDx=0;entryDy=0;exitX=0.5;exitY=0.5;exitDx=0;exitDy=0;exitPerimeter=0;" edge="1" parent="1" source="PquL24Wd1NJU8HrAwHON-24" target="PquL24Wd1NJU8HrAwHON-14">
          <mxGeometry width="50" height="50" relative="1" as="geometry">
            <mxPoint x="100" y="219" as="sourcePoint" />
            <mxPoint x="220" y="210" as="targetPoint" />
          </mxGeometry>
        </mxCell>
        <mxCell id="PquL24Wd1NJU8HrAwHON-18" value="" style="endArrow=none;html=1;rounded=0;exitX=1;exitY=0.5;exitDx=0;exitDy=0;" edge="1" parent="1" source="PquL24Wd1NJU8HrAwHON-32" target="PquL24Wd1NJU8HrAwHON-3">
          <mxGeometry width="50" height="50" relative="1" as="geometry">
            <mxPoint x="680" y="299" as="sourcePoint" />
            <mxPoint x="800" y="290" as="targetPoint" />
          </mxGeometry>
        </mxCell>
        <mxCell id="PquL24Wd1NJU8HrAwHON-19" value="" style="endArrow=none;html=1;rounded=0;exitX=1;exitY=0.5;exitDx=0;exitDy=0;" edge="1" parent="1" source="PquL24Wd1NJU8HrAwHON-31" target="PquL24Wd1NJU8HrAwHON-3">
          <mxGeometry width="50" height="50" relative="1" as="geometry">
            <mxPoint x="710" y="259" as="sourcePoint" />
            <mxPoint x="830" y="250" as="targetPoint" />
          </mxGeometry>
        </mxCell>
        <mxCell id="PquL24Wd1NJU8HrAwHON-20" value="" style="endArrow=none;html=1;rounded=0;exitX=1;exitY=0.5;exitDx=0;exitDy=0;" edge="1" parent="1" source="PquL24Wd1NJU8HrAwHON-30" target="PquL24Wd1NJU8HrAwHON-3">
          <mxGeometry width="50" height="50" relative="1" as="geometry">
            <mxPoint x="770" y="289" as="sourcePoint" />
            <mxPoint x="890" y="280" as="targetPoint" />
          </mxGeometry>
        </mxCell>
        <mxCell id="PquL24Wd1NJU8HrAwHON-21" value="" style="endArrow=none;html=1;rounded=0;exitX=1;exitY=0.5;exitDx=0;exitDy=0;" edge="1" parent="1" source="PquL24Wd1NJU8HrAwHON-28" target="PquL24Wd1NJU8HrAwHON-3">
          <mxGeometry width="50" height="50" relative="1" as="geometry">
            <mxPoint x="780" y="269" as="sourcePoint" />
            <mxPoint x="900" y="260" as="targetPoint" />
          </mxGeometry>
        </mxCell>
        <mxCell id="PquL24Wd1NJU8HrAwHON-22" value="" style="endArrow=none;html=1;rounded=0;exitX=1;exitY=0.5;exitDx=0;exitDy=0;" edge="1" parent="1" source="PquL24Wd1NJU8HrAwHON-29" target="PquL24Wd1NJU8HrAwHON-3">
          <mxGeometry width="50" height="50" relative="1" as="geometry">
            <mxPoint x="800" y="259" as="sourcePoint" />
            <mxPoint x="920" y="250" as="targetPoint" />
          </mxGeometry>
        </mxCell>
        <mxCell id="PquL24Wd1NJU8HrAwHON-23" value="" style="endArrow=none;html=1;rounded=0;entryX=0;entryY=0.5;entryDx=0;entryDy=0;exitX=1;exitY=0.5;exitDx=0;exitDy=0;" edge="1" parent="1" source="PquL24Wd1NJU8HrAwHON-25" target="PquL24Wd1NJU8HrAwHON-8">
          <mxGeometry width="50" height="50" relative="1" as="geometry">
            <mxPoint x="370" y="179" as="sourcePoint" />
            <mxPoint x="490" y="170" as="targetPoint" />
          </mxGeometry>
        </mxCell>
        <mxCell id="PquL24Wd1NJU8HrAwHON-26" value="" style="endArrow=none;html=1;rounded=0;entryX=0;entryY=0.5;entryDx=0;entryDy=0;exitX=0.986;exitY=0.675;exitDx=0;exitDy=0;exitPerimeter=0;" edge="1" parent="1" source="PquL24Wd1NJU8HrAwHON-41" target="PquL24Wd1NJU8HrAwHON-25">
          <mxGeometry width="50" height="50" relative="1" as="geometry">
            <mxPoint x="220" y="210" as="sourcePoint" />
            <mxPoint x="550" y="240" as="targetPoint" />
          </mxGeometry>
        </mxCell>
        <mxCell id="PquL24Wd1NJU8HrAwHON-25" value="extends" style="text;html=1;align=center;verticalAlign=middle;resizable=0;points=[];autosize=1;strokeColor=none;fillColor=none;" vertex="1" parent="1">
          <mxGeometry x="410" y="110" width="70" height="30" as="geometry" />
        </mxCell>
        <mxCell id="PquL24Wd1NJU8HrAwHON-27" value="" style="endArrow=none;html=1;rounded=0;entryX=0;entryY=0.5;entryDx=0;entryDy=0;exitX=0.5;exitY=0.5;exitDx=0;exitDy=0;exitPerimeter=0;" edge="1" parent="1" source="PquL24Wd1NJU8HrAwHON-2" target="PquL24Wd1NJU8HrAwHON-24">
          <mxGeometry width="50" height="50" relative="1" as="geometry">
            <mxPoint x="15" y="220" as="sourcePoint" />
            <mxPoint x="150" y="310" as="targetPoint" />
          </mxGeometry>
        </mxCell>
        <mxCell id="PquL24Wd1NJU8HrAwHON-24" value="include&lt;div&gt;&lt;br&gt;&lt;/div&gt;" style="text;html=1;align=center;verticalAlign=middle;resizable=0;points=[];autosize=1;strokeColor=none;fillColor=none;" vertex="1" parent="1">
          <mxGeometry x="70" y="280" width="60" height="40" as="geometry" />
        </mxCell>
        <mxCell id="PquL24Wd1NJU8HrAwHON-33" value="" style="endArrow=none;html=1;rounded=0;exitX=1;exitY=0.5;exitDx=0;exitDy=0;" edge="1" parent="1" source="PquL24Wd1NJU8HrAwHON-6" target="PquL24Wd1NJU8HrAwHON-32">
          <mxGeometry width="50" height="50" relative="1" as="geometry">
            <mxPoint x="620" y="90" as="sourcePoint" />
            <mxPoint x="810" y="201" as="targetPoint" />
          </mxGeometry>
        </mxCell>
        <mxCell id="PquL24Wd1NJU8HrAwHON-32" value="include&lt;div&gt;&lt;br&gt;&lt;/div&gt;" style="text;html=1;align=center;verticalAlign=middle;resizable=0;points=[];autosize=1;strokeColor=none;fillColor=none;" vertex="1" parent="1">
          <mxGeometry x="670" y="70" width="60" height="40" as="geometry" />
        </mxCell>
        <mxCell id="PquL24Wd1NJU8HrAwHON-34" value="" style="endArrow=none;html=1;rounded=0;exitX=1;exitY=0.5;exitDx=0;exitDy=0;" edge="1" parent="1" source="PquL24Wd1NJU8HrAwHON-7" target="PquL24Wd1NJU8HrAwHON-31">
          <mxGeometry width="50" height="50" relative="1" as="geometry">
            <mxPoint x="620" y="170" as="sourcePoint" />
            <mxPoint x="810" y="207" as="targetPoint" />
          </mxGeometry>
        </mxCell>
        <mxCell id="PquL24Wd1NJU8HrAwHON-31" value="include&lt;div&gt;&lt;br&gt;&lt;/div&gt;" style="text;html=1;align=center;verticalAlign=middle;resizable=0;points=[];autosize=1;strokeColor=none;fillColor=none;" vertex="1" parent="1">
          <mxGeometry x="660" y="150" width="60" height="40" as="geometry" />
        </mxCell>
        <mxCell id="PquL24Wd1NJU8HrAwHON-35" value="" style="endArrow=none;html=1;rounded=0;exitX=1;exitY=0.5;exitDx=0;exitDy=0;" edge="1" parent="1" source="PquL24Wd1NJU8HrAwHON-8" target="PquL24Wd1NJU8HrAwHON-30">
          <mxGeometry width="50" height="50" relative="1" as="geometry">
            <mxPoint x="620" y="240" as="sourcePoint" />
            <mxPoint x="810" y="212" as="targetPoint" />
          </mxGeometry>
        </mxCell>
        <mxCell id="PquL24Wd1NJU8HrAwHON-30" value="include&lt;div&gt;&lt;br&gt;&lt;/div&gt;" style="text;html=1;align=center;verticalAlign=middle;resizable=0;points=[];autosize=1;strokeColor=none;fillColor=none;" vertex="1" parent="1">
          <mxGeometry x="660" y="220" width="60" height="40" as="geometry" />
        </mxCell>
        <mxCell id="PquL24Wd1NJU8HrAwHON-36" value="" style="endArrow=none;html=1;rounded=0;exitX=1;exitY=0.5;exitDx=0;exitDy=0;" edge="1" parent="1" source="PquL24Wd1NJU8HrAwHON-9" target="PquL24Wd1NJU8HrAwHON-28">
          <mxGeometry width="50" height="50" relative="1" as="geometry">
            <mxPoint x="620" y="310" as="sourcePoint" />
            <mxPoint x="810" y="217" as="targetPoint" />
          </mxGeometry>
        </mxCell>
        <mxCell id="PquL24Wd1NJU8HrAwHON-28" value="include&lt;div&gt;&lt;br&gt;&lt;/div&gt;" style="text;html=1;align=center;verticalAlign=middle;resizable=0;points=[];autosize=1;strokeColor=none;fillColor=none;" vertex="1" parent="1">
          <mxGeometry x="660" y="280" width="60" height="40" as="geometry" />
        </mxCell>
        <mxCell id="PquL24Wd1NJU8HrAwHON-37" value="" style="endArrow=none;html=1;rounded=0;exitX=1;exitY=0.5;exitDx=0;exitDy=0;" edge="1" parent="1" source="PquL24Wd1NJU8HrAwHON-13" target="PquL24Wd1NJU8HrAwHON-29">
          <mxGeometry width="50" height="50" relative="1" as="geometry">
            <mxPoint x="620" y="370" as="sourcePoint" />
            <mxPoint x="810" y="222" as="targetPoint" />
          </mxGeometry>
        </mxCell>
        <mxCell id="PquL24Wd1NJU8HrAwHON-29" value="include&lt;div&gt;&lt;br&gt;&lt;/div&gt;" style="text;html=1;align=center;verticalAlign=middle;resizable=0;points=[];autosize=1;strokeColor=none;fillColor=none;" vertex="1" parent="1">
          <mxGeometry x="660" y="350" width="60" height="40" as="geometry" />
        </mxCell>
        <mxCell id="PquL24Wd1NJU8HrAwHON-39" value="" style="endArrow=none;html=1;rounded=0;entryX=0;entryY=0.5;entryDx=0;entryDy=0;" edge="1" parent="1" source="PquL24Wd1NJU8HrAwHON-2" target="PquL24Wd1NJU8HrAwHON-38">
          <mxGeometry width="50" height="50" relative="1" as="geometry">
            <mxPoint x="30" y="219" as="sourcePoint" />
            <mxPoint x="150" y="210" as="targetPoint" />
          </mxGeometry>
        </mxCell>
        <mxCell id="PquL24Wd1NJU8HrAwHON-38" value="include&lt;div&gt;&lt;br&gt;&lt;/div&gt;" style="text;html=1;align=center;verticalAlign=middle;resizable=0;points=[];autosize=1;strokeColor=none;fillColor=none;" vertex="1" parent="1">
          <mxGeometry x="80" y="195" width="60" height="40" as="geometry" />
        </mxCell>
        <mxCell id="PquL24Wd1NJU8HrAwHON-41" value="aplicar filtros" style="ellipse;whiteSpace=wrap;html=1;" vertex="1" parent="1">
          <mxGeometry x="270" y="100" width="70" height="40" as="geometry" />
        </mxCell>
        <mxCell id="PquL24Wd1NJU8HrAwHON-42" value="" style="endArrow=none;html=1;rounded=0;entryX=0;entryY=0.5;entryDx=0;entryDy=0;exitX=1;exitY=0.5;exitDx=0;exitDy=0;" edge="1" parent="1" source="PquL24Wd1NJU8HrAwHON-44" target="PquL24Wd1NJU8HrAwHON-8">
          <mxGeometry width="50" height="50" relative="1" as="geometry">
            <mxPoint x="280" y="213" as="sourcePoint" />
            <mxPoint x="320" y="210" as="targetPoint" />
          </mxGeometry>
        </mxCell>
        <mxCell id="PquL24Wd1NJU8HrAwHON-43" value="" style="endArrow=none;html=1;rounded=0;entryX=0;entryY=0.5;entryDx=0;entryDy=0;exitX=1;exitY=0.5;exitDx=0;exitDy=0;" edge="1" parent="1" source="PquL24Wd1NJU8HrAwHON-45" target="PquL24Wd1NJU8HrAwHON-8">
          <mxGeometry width="50" height="50" relative="1" as="geometry">
            <mxPoint x="270" y="323" as="sourcePoint" />
            <mxPoint x="310" y="320" as="targetPoint" />
          </mxGeometry>
        </mxCell>
        <mxCell id="PquL24Wd1NJU8HrAwHON-46" value="" style="endArrow=none;html=1;rounded=0;entryX=0;entryY=0.5;entryDx=0;entryDy=0;exitX=1;exitY=0.5;exitDx=0;exitDy=0;" edge="1" parent="1" source="PquL24Wd1NJU8HrAwHON-14" target="PquL24Wd1NJU8HrAwHON-45">
          <mxGeometry width="50" height="50" relative="1" as="geometry">
            <mxPoint x="220" y="310" as="sourcePoint" />
            <mxPoint x="550" y="240" as="targetPoint" />
          </mxGeometry>
        </mxCell>
        <mxCell id="PquL24Wd1NJU8HrAwHON-45" value="include&lt;div&gt;&lt;br&gt;&lt;/div&gt;" style="text;html=1;align=center;verticalAlign=middle;resizable=0;points=[];autosize=1;strokeColor=none;fillColor=none;" vertex="1" parent="1">
          <mxGeometry x="320" y="280" width="60" height="40" as="geometry" />
        </mxCell>
        <mxCell id="PquL24Wd1NJU8HrAwHON-47" value="" style="endArrow=none;html=1;rounded=0;entryX=0;entryY=0.5;entryDx=0;entryDy=0;exitX=1;exitY=0.5;exitDx=0;exitDy=0;" edge="1" parent="1" source="PquL24Wd1NJU8HrAwHON-5" target="PquL24Wd1NJU8HrAwHON-44">
          <mxGeometry width="50" height="50" relative="1" as="geometry">
            <mxPoint x="250" y="210" as="sourcePoint" />
            <mxPoint x="550" y="240" as="targetPoint" />
          </mxGeometry>
        </mxCell>
        <mxCell id="PquL24Wd1NJU8HrAwHON-44" value="include&lt;div&gt;&lt;br&gt;&lt;/div&gt;" style="text;html=1;align=center;verticalAlign=middle;resizable=0;points=[];autosize=1;strokeColor=none;fillColor=none;" vertex="1" parent="1">
          <mxGeometry x="330" y="205" width="60" height="40" as="geometry" />
        </mxCell>
        <mxCell id="PquL24Wd1NJU8HrAwHON-49" value="reserva" style="text;html=1;align=center;verticalAlign=middle;resizable=0;points=[];autosize=1;strokeColor=none;fillColor=none;" vertex="1" parent="1">
          <mxGeometry x="390" y="-2" width="60" height="30" as="geometry" />
        </mxCell>
      </root>
    </mxGraphModel>
  </diagram>
</mxfile>
